<?xml version="1.0" standalone="no"?>
<!DOCTYPE svg PUBLIC "-//W3C//DTD SVG 20010904//EN"
 "http://www.w3.org/TR/2001/REC-SVG-20010904/DTD/svg10.dtd">
<svg version="1.0" xmlns="http://www.w3.org/2000/svg"
 width="1012.000000pt" height="890.000000pt" viewBox="0 0 1012.000000 890.000000"
 preserveAspectRatio="xMidYMid meet">

<g transform="translate(0.000000,890.000000) scale(0.100000,-0.100000)"
fill="#ffffff" stroke="none">
<path d="M4390 7960 c-378 -27 -647 -119 -870 -296 -139 -110 -288 -262 -399
-404 -126 -161 -190 -258 -341 -515 -68 -115 -146 -246 -175 -290 -28 -44 -75
-122 -104 -174 -53 -94 -114 -191 -217 -346 -29 -44 -117 -152 -194 -240 -78
-88 -187 -214 -242 -280 -56 -66 -140 -158 -187 -205 -47 -47 -131 -133 -186
-191 -118 -124 -417 -369 -451 -369 -41 0 -124 -119 -124 -178 0 -79 133 -168
268 -179 l73 -6 -20 -21 c-35 -39 -61 -91 -61 -125 0 -46 34 -98 75 -112 l34
-13 -38 -43 c-45 -50 -66 -116 -57 -170 8 -42 106 -221 147 -268 15 -16 36
-49 47 -71 26 -51 124 -176 212 -269 98 -104 270 -344 450 -628 36 -57 87
-134 114 -171 27 -37 108 -190 181 -339 142 -291 204 -392 366 -592 169 -209
257 -279 504 -403 195 -97 477 -165 1000 -238 172 -25 217 -27 475 -26 299 1
488 12 630 38 106 19 333 92 465 149 156 68 422 202 510 258 85 55 450 313
500 354 51 43 189 176 460 442 143 141 342 337 443 435 100 98 240 246 310
329 142 171 816 871 953 990 111 96 175 177 234 290 37 74 45 97 45 144 0 51
-3 59 -38 93 -50 50 -115 64 -255 54 -97 -6 -106 -5 -172 21 -111 44 -120 60
-53 97 35 19 44 30 50 62 16 75 -21 128 -232 336 -199 198 -772 822 -1041
1135 -90 105 -235 271 -324 370 -88 99 -214 243 -280 320 -138 160 -399 423
-584 589 -332 297 -779 541 -1121 611 -199 41 -552 62 -780 45z m400 -150
c350 -25 554 -79 812 -216 57 -29 148 -76 203 -104 191 -95 394 -259 646 -522
96 -100 185 -196 199 -213 78 -101 207 -253 362 -426 96 -108 244 -277 329
-375 416 -485 1014 -1127 1202 -1291 50 -45 61 -81 33 -118 -13 -19 -15 -19
-55 0 -23 10 -46 24 -53 32 -6 7 -67 53 -136 101 -128 89 -323 254 -423 359
-31 32 -114 130 -184 218 -166 206 -377 447 -485 554 -78 77 -443 387 -734
625 -308 251 -707 488 -931 551 -123 35 -386 82 -531 94 -228 20 -525 -22
-749 -106 -413 -154 -930 -597 -1509 -1294 -67 -80 -173 -208 -236 -285 -153
-186 -272 -303 -405 -399 -60 -44 -181 -134 -267 -200 -87 -66 -217 -163 -290
-215 -72 -52 -154 -114 -182 -137 -41 -35 -57 -43 -90 -43 -74 0 -247 42 -266
65 -19 23 -7 58 28 80 18 11 60 42 95 69 34 27 94 70 132 94 39 25 97 66 130
92 34 26 72 53 85 60 32 17 334 328 432 445 41 50 148 173 237 275 163 185
304 382 416 580 26 47 71 121 98 165 28 44 112 184 187 310 176 297 214 355
324 500 146 192 321 362 498 483 147 101 421 175 703 192 194 11 217 11 375 0z
m329 -916 c176 -22 383 -67 481 -103 227 -83 606 -328 908 -586 61 -52 195
-165 299 -251 265 -222 310 -264 431 -399 59 -66 122 -137 141 -157 44 -50 28
-48 -51 6 -67 46 -182 107 -285 150 -33 14 -135 66 -226 115 -90 48 -204 106
-253 128 -49 22 -145 75 -214 118 -69 43 -154 96 -190 118 -36 21 -108 67
-160 101 -52 34 -140 83 -195 108 -55 25 -163 75 -240 111 -193 91 -235 106
-350 129 -263 51 -523 62 -684 28 -158 -34 -287 -77 -404 -136 -139 -70 -362
-218 -504 -335 -169 -139 -301 -236 -391 -287 -46 -26 -131 -75 -188 -109 -58
-34 -104 -58 -102 -53 2 5 83 101 181 214 275 317 642 653 916 836 196 132
367 201 591 239 209 35 312 38 489 15z m-169 -459 c269 -29 341 -47 550 -145
80 -37 197 -91 260 -120 63 -29 158 -80 210 -115 211 -140 475 -299 557 -335
49 -21 149 -70 223 -110 192 -102 191 -102 343 -174 76 -36 160 -81 186 -100
26 -20 79 -49 117 -66 102 -46 168 -96 231 -173 64 -80 63 -80 -87 -10 -52 25
-176 76 -275 114 -99 39 -236 101 -306 140 -128 70 -302 146 -464 201 -49 17
-166 64 -259 105 -219 96 -646 244 -788 272 -250 50 -675 60 -978 23 -232 -28
-603 -113 -847 -193 -176 -58 -690 -328 -912 -478 -67 -46 -69 -42 -12 26 40
49 326 244 481 328 167 91 295 180 461 321 158 133 340 256 520 352 117 62
305 119 479 146 58 8 184 5 310 -9z m130 -560 c303 -23 333 -28 535 -91 229
-70 412 -137 573 -208 92 -41 208 -88 257 -105 162 -57 340 -132 421 -177 120
-68 230 -119 387 -178 184 -71 366 -153 488 -221 53 -30 100 -55 104 -55 4 0
59 -46 123 -101 145 -126 356 -277 443 -318 36 -17 73 -39 83 -50 16 -18 9
-18 -246 -19 -257 -2 -499 14 -621 39 -29 6 -115 30 -192 54 -183 56 -262 75
-545 135 -380 79 -541 103 -875 130 -77 6 -183 18 -235 26 -219 35 -860 55
-1075 34 -55 -6 -212 -15 -350 -20 -297 -11 -595 -27 -685 -35 -203 -19 -480
-59 -655 -94 -110 -22 -288 -52 -395 -66 -420 -56 -718 -113 -844 -161 -78
-30 -236 -76 -236 -69 0 1 61 47 136 101 75 55 182 133 236 174 55 41 143 107
197 145 101 73 214 161 291 228 24 21 74 55 110 75 36 19 144 86 240 148 231
147 335 206 574 326 237 118 323 152 511 202 384 100 516 124 855 155 141 12
187 12 390 -4z m773 -1306 c106 -12 108 -12 136 -48 46 -58 151 -255 172 -322
25 -81 25 -123 -3 -149 -48 -44 -104 -13 -119 65 -12 63 -99 236 -161 319 -28
37 -72 79 -105 102 -77 51 -83 56 -53 50 14 -3 74 -10 133 -17z m-1785 -30
c-59 -73 -79 -103 -117 -179 -45 -89 -126 -331 -140 -421 -13 -79 -14 -274 -1
-354 62 -404 122 -566 261 -710 32 -32 57 -60 56 -61 -5 -6 -218 28 -302 47
-243 56 -484 144 -512 186 -19 28 -107 240 -133 318 -23 70 -70 320 -70 372 0
20 -5 53 -11 73 -9 29 -8 72 4 186 9 82 19 185 23 229 6 78 57 231 87 262 17
17 414 63 667 78 118 7 217 13 218 14 2 0 -11 -17 -30 -40z m2401 -45 c79 -12
256 -47 393 -76 209 -44 251 -56 261 -73 8 -14 12 -114 12 -320 0 -333 -11
-440 -66 -610 l-29 -90 -57 -24 c-32 -14 -108 -48 -170 -78 -108 -51 -226 -94
-523 -188 -80 -25 -152 -49 -160 -52 -8 -4 8 20 36 53 114 134 183 252 230
391 14 43 30 83 35 89 21 26 41 189 36 289 -10 173 -52 311 -159 525 -51 102
-95 188 -96 193 -5 9 75 1 257 -29z m-3414 -51 c-4 -10 -13 -54 -21 -98 -8
-44 -26 -138 -40 -210 -53 -272 -67 -510 -43 -749 6 -59 9 -109 7 -111 -2 -2
-36 22 -75 53 -40 32 -116 91 -170 133 -88 69 -238 155 -303 174 -14 4 -63 24
-110 45 -85 37 -132 52 -350 110 -295 79 -473 142 -512 181 -38 37 -39 100 -3
133 23 21 123 56 260 90 33 9 88 27 123 41 117 47 343 91 832 160 140 20 282
42 315 49 86 20 99 20 90 -1z m4372 -167 c210 -66 422 -89 788 -88 181 1 258
-2 279 -11 l29 -13 -119 -75 c-65 -42 -135 -84 -154 -94 -62 -31 -184 -108
-230 -145 -86 -69 -747 -430 -787 -430 -3 0 -2 8 1 17 17 44 47 265 57 419 7
121 7 209 0 304 -14 171 -14 162 7 156 9 -3 67 -21 129 -40z m1587 -123 c-48
-85 -101 -149 -180 -219 -116 -103 -162 -149 -516 -514 -179 -184 -385 -407
-459 -496 -98 -117 -252 -276 -572 -590 -649 -635 -617 -607 -1021 -885 -120
-83 -453 -256 -625 -325 -131 -53 -297 -103 -396 -120 -112 -18 -576 -38 -750
-31 -238 9 -714 86 -985 159 -211 56 -449 185 -561 303 -159 167 -315 387
-403 570 -32 66 -85 176 -118 245 -56 115 -107 199 -294 478 -38 57 -96 145
-129 196 -153 237 -267 372 -514 609 -67 65 -135 132 -150 150 -52 60 -64 103
-36 127 22 18 153 -50 182 -95 21 -32 126 -120 235 -198 29 -20 116 -98 193
-173 242 -236 292 -281 352 -314 34 -20 100 -76 158 -135 55 -55 121 -115 145
-132 25 -17 68 -54 95 -83 28 -28 65 -58 83 -65 18 -8 54 -36 80 -62 26 -27
63 -59 82 -73 19 -13 58 -44 86 -69 136 -121 179 -155 261 -202 108 -62 210
-127 241 -154 32 -28 186 -116 252 -144 30 -13 87 -38 125 -56 71 -34 254 -79
445 -112 139 -24 413 -23 560 1 58 9 143 21 190 27 141 17 340 50 568 95 144
28 371 112 553 203 180 90 515 300 663 414 44 35 142 106 216 159 74 52 171
127 215 167 164 145 216 188 341 281 71 52 183 147 249 210 66 63 181 171 255
240 74 68 182 170 240 226 192 185 294 279 355 324 43 33 61 53 63 72 4 29 5
30 195 36 l58 2 -27 -47z m-2800 -254 c50 -39 22 -119 -43 -119 -33 0 -71 39
-71 72 0 24 44 68 68 68 11 0 31 -9 46 -21z m2096 -63 c0 -1 -84 -81 -187
-177 -104 -96 -240 -224 -303 -284 -110 -106 -208 -186 -352 -288 -37 -26
-104 -82 -150 -125 -112 -105 -188 -167 -305 -248 -54 -37 -144 -103 -199
-146 -173 -133 -478 -324 -664 -417 -191 -95 -423 -177 -585 -206 -49 -9 -110
-20 -135 -25 -78 -17 -231 -41 -350 -55 -63 -8 -162 -21 -220 -30 -162 -26
-387 -24 -546 3 -195 34 -354 76 -436 115 -40 19 -93 44 -118 56 -68 31 -168
92 -230 139 -30 23 -109 72 -175 109 -66 38 -143 88 -171 113 -28 25 -86 74
-129 110 -42 36 -100 87 -128 113 -29 27 -81 68 -117 92 -36 24 -81 60 -100
80 -19 20 -55 51 -80 68 -24 17 -90 77 -145 132 -55 56 -122 115 -150 130 -74
42 -82 50 -300 261 -110 106 -225 212 -255 234 -75 55 -201 153 -206 162 -6 9
104 -30 209 -73 40 -17 105 -39 144 -49 40 -11 105 -33 145 -51 40 -17 130
-53 200 -79 176 -67 245 -106 380 -215 217 -174 309 -236 565 -379 56 -32 135
-71 175 -88 40 -17 78 -34 84 -39 38 -31 353 -103 608 -141 223 -32 250 -32
511 -8 61 6 198 15 305 20 465 20 611 33 925 76 136 19 155 24 500 135 414
133 479 158 676 259 42 22 112 53 155 70 105 42 421 197 510 252 40 23 119 71
175 105 57 33 118 73 134 88 17 15 77 54 135 86 58 32 115 66 127 75 13 9 31
23 40 30 17 13 33 18 33 10z"/>
</g>
</svg>
