<?xml version="1.0" standalone="no"?>
<!DOCTYPE svg PUBLIC "-//W3C//DTD SVG 20010904//EN"
 "http://www.w3.org/TR/2001/REC-SVG-20010904/DTD/svg10.dtd">
<svg version="1.0" xmlns="http://www.w3.org/2000/svg"
 width="1012.000000pt" height="890.000000pt" viewBox="0 0 1012.000000 890.000000"
 preserveAspectRatio="xMidYMid meet">

<g transform="translate(0.000000,890.000000) scale(0.100000,-0.100000)"
fill="#ffffff" stroke="none">
<path d="M4390 7960 c-378 -27 -647 -119 -870 -296 -139 -110 -288 -262 -399
-404 -126 -161 -190 -258 -341 -515 -68 -115 -146 -246 -175 -290 -28 -44 -75
-122 -104 -174 -53 -94 -114 -191 -217 -346 -29 -44 -117 -152 -194 -240 -78
-88 -187 -214 -242 -280 -56 -66 -140 -158 -187 -205 -47 -47 -131 -133 -186
-191 -118 -124 -417 -369 -451 -369 -41 0 -124 -119 -124 -178 0 -79 133 -168
268 -179 l73 -6 -20 -21 c-35 -39 -61 -91 -61 -124 0 -42 25 -87 57 -101 31
-14 31 -60 -1 -90 -31 -29 -50 -99 -42 -148 8 -42 106 -221 147 -268 15 -16
36 -49 47 -71 26 -51 124 -176 212 -269 98 -104 270 -344 450 -628 36 -57 87
-134 114 -171 27 -37 108 -190 181 -339 142 -291 204 -392 366 -592 169 -209
257 -279 504 -403 195 -97 477 -165 1000 -238 172 -25 217 -27 475 -26 299 1
488 12 630 38 106 19 333 92 465 149 156 68 422 202 510 258 85 55 450 313
500 354 51 43 189 176 460 442 143 141 342 337 443 435 100 98 240 246 310
329 142 171 816 871 953 990 111 96 175 177 234 290 37 74 45 97 45 144 0 51
-3 59 -38 93 -50 50 -115 64 -255 54 -97 -6 -106 -5 -172 21 -111 44 -120 60
-53 97 35 19 44 30 50 62 16 75 -21 128 -232 336 -199 198 -772 822 -1041
1135 -90 105 -235 271 -324 370 -88 99 -214 243 -280 320 -138 160 -399 423
-584 589 -332 297 -779 541 -1121 611 -199 41 -552 62 -780 45z m400 -150
c350 -25 554 -79 812 -216 57 -29 148 -76 203 -104 191 -95 394 -259 646 -522
96 -100 185 -196 199 -213 78 -101 207 -253 362 -426 96 -108 244 -277 329
-375 416 -485 1014 -1127 1202 -1291 50 -45 61 -81 33 -118 -13 -19 -15 -19
-55 0 -23 10 -46 24 -53 32 -6 7 -67 53 -136 101 -128 89 -323 254 -423 359
-31 32 -114 130 -184 218 -166 206 -377 447 -485 554 -78 77 -443 387 -734
625 -308 251 -707 488 -931 551 -123 35 -386 82 -531 94 -228 20 -525 -22
-749 -106 -413 -154 -930 -597 -1509 -1294 -67 -80 -173 -208 -236 -285 -153
-186 -272 -303 -405 -399 -60 -44 -181 -134 -267 -200 -87 -66 -217 -163 -290
-215 -72 -52 -154 -114 -182 -137 -41 -35 -57 -43 -90 -43 -74 0 -247 42 -266
65 -19 23 -7 58 28 80 18 11 60 42 95 69 34 27 94 70 132 94 39 25 97 66 130
92 34 26 72 53 85 60 32 17 334 328 432 445 41 50 148 173 237 275 163 185
304 382 416 580 26 47 71 121 98 165 28 44 112 184 187 310 176 297 214 355
324 500 146 192 321 362 498 483 147 101 421 175 703 192 194 11 217 11 375 0z
m329 -916 c176 -22 383 -67 481 -103 227 -83 606 -328 908 -586 61 -52 195
-165 299 -251 265 -222 310 -264 431 -399 59 -66 122 -137 141 -157 44 -50 28
-48 -51 6 -67 46 -182 107 -285 150 -33 14 -135 66 -226 115 -90 48 -204 106
-253 128 -49 22 -145 75 -214 118 -69 43 -154 96 -190 118 -36 21 -108 67
-160 101 -52 34 -140 83 -195 108 -55 25 -163 75 -240 111 -193 91 -235 106
-350 129 -263 51 -523 62 -684 28 -158 -34 -287 -77 -404 -136 -139 -70 -362
-218 -504 -335 -169 -139 -301 -236 -391 -287 -46 -26 -131 -75 -188 -109 -58
-34 -104 -58 -102 -53 2 5 83 101 181 214 275 317 642 653 916 836 196 132
367 201 591 239 209 35 312 38 489 15z m-169 -459 c269 -29 341 -47 550 -145
80 -37 197 -91 260 -120 63 -29 158 -80 210 -115 208 -138 474 -298 552 -332
46 -20 155 -74 243 -122 88 -47 180 -94 205 -105 133 -59 505 -256 580 -306
58 -40 177 -159 225 -225 16 -22 42 -52 59 -68 l31 -27 -30 6 c-16 3 -82 24
-145 46 -146 51 -336 114 -515 172 -144 46 -640 215 -845 287 -63 22 -180 71
-260 109 -146 69 -272 112 -519 176 -146 38 -379 64 -570 64 -166 0 -477 -45
-596 -86 -55 -19 -152 -50 -215 -69 -80 -24 -174 -64 -310 -134 -107 -54 -251
-122 -320 -151 -150 -62 -196 -87 -365 -201 -71 -48 -182 -115 -245 -149 -63
-35 -173 -101 -245 -148 -185 -122 -846 -465 -1000 -518 -87 -31 -204 -58
-213 -50 -2 2 16 29 40 59 38 49 231 202 320 255 15 9 28 19 28 23 0 4 26 26
57 50 32 24 100 79 151 124 52 44 129 105 171 135 199 141 255 193 483 452 32
36 330 233 458 303 167 91 295 180 461 321 158 133 340 256 520 352 117 62
305 119 479 146 58 8 184 5 310 -9z m282 -810 c242 -22 585 -113 769 -205 137
-69 199 -93 586 -224 186 -63 376 -128 422 -146 47 -17 159 -53 250 -81 91
-28 232 -75 313 -104 80 -29 181 -63 225 -74 169 -46 223 -71 288 -137 33 -33
107 -94 165 -135 97 -68 102 -74 75 -77 -68 -5 -263 -34 -298 -43 -37 -10
-235 -35 -347 -44 -283 -24 -565 -35 -1015 -40 -499 -5 -660 -1 -990 24 -71 6
-371 12 -665 13 -443 3 -569 0 -730 -14 -107 -10 -271 -22 -365 -28 -93 -5
-226 -14 -295 -20 -129 -10 -454 -33 -690 -50 -271 -19 -370 -21 -645 -10
-324 12 -423 21 -385 34 14 4 87 41 162 82 75 41 230 123 345 182 114 60 260
142 323 184 63 41 177 110 254 152 76 42 194 115 263 162 142 96 189 121 363
194 69 28 191 87 272 131 104 57 183 91 275 120 70 23 170 57 222 76 89 32
162 46 426 81 107 14 243 13 427 -3z m2862 -1429 c-34 -18 -91 -53 -126 -78
-35 -26 -109 -71 -164 -101 -191 -106 -259 -146 -313 -184 -60 -42 -205 -133
-208 -130 -1 1 3 63 7 137 5 74 9 171 10 216 l0 81 173 11 c236 17 454 41 562
62 125 25 128 24 59 -14z m602 -90 c-213 -174 -472 -394 -637 -543 -206 -186
-515 -438 -634 -518 -49 -33 -198 -116 -330 -184 -132 -68 -336 -178 -453
-243 -278 -156 -387 -200 -962 -387 -320 -104 -409 -129 -564 -157 -78 -14
-222 -46 -321 -70 -285 -71 -463 -78 -786 -35 -161 22 -196 32 -301 90 -40 22
-127 62 -193 89 -66 27 -168 78 -227 113 -58 35 -133 79 -166 97 -45 26 -105
82 -248 234 -157 166 -207 212 -294 271 -58 39 -150 115 -205 167 -55 53 -134
125 -175 160 -41 36 -127 112 -190 170 -63 58 -155 141 -205 184 -49 44 -124
112 -165 152 -70 68 -113 101 -247 190 -29 19 -53 39 -53 44 0 20 42 30 128
30 l89 0 139 -126 c76 -70 173 -151 214 -180 631 -451 676 -479 1055 -662 182
-88 366 -172 410 -187 83 -28 286 -78 365 -90 25 -4 133 -24 240 -45 217 -43
606 -80 830 -80 350 0 851 143 1324 378 116 57 272 128 346 157 75 29 208 87
295 128 88 42 198 91 245 110 214 88 486 236 565 307 19 17 138 86 289 168 38
20 119 70 180 111 114 76 269 150 469 222 60 22 115 43 123 47 8 4 48 2 88 -6
l74 -15 -112 -91z m318 47 c-48 -85 -101 -149 -180 -219 -116 -103 -162 -149
-516 -514 -179 -184 -385 -407 -459 -496 -98 -117 -252 -276 -572 -590 -649
-635 -617 -607 -1021 -885 -120 -83 -453 -256 -625 -325 -131 -53 -297 -103
-396 -120 -112 -18 -576 -38 -750 -31 -238 9 -714 86 -985 159 -211 56 -449
185 -561 303 -159 167 -315 387 -403 570 -32 66 -85 176 -118 245 -56 115
-107 199 -294 478 -38 57 -96 145 -129 196 -153 237 -267 372 -514 609 -132
127 -172 170 -190 204 -13 26 -15 89 -2 97 14 9 197 -127 281 -208 41 -40 116
-108 165 -151 50 -44 142 -127 205 -185 63 -58 147 -132 185 -165 39 -33 117
-105 175 -160 58 -56 152 -133 210 -172 88 -60 135 -103 290 -267 193 -205
208 -218 349 -295 47 -27 113 -64 146 -85 32 -20 95 -51 140 -69 44 -17 137
-60 207 -94 159 -78 193 -87 403 -113 301 -36 475 -25 785 49 113 27 266 60
340 75 134 25 226 52 683 200 426 138 568 198 837 351 85 49 275 150 422 226
146 75 304 162 350 193 110 73 452 353 650 531 248 225 724 622 779 650 15 8
30 24 34 35 5 16 15 20 56 20 l50 0 -27 -47z m-2881 -33 c43 0 47 -2 47 -25 0
-30 -36 -65 -67 -65 -32 0 -73 43 -73 76 0 22 3 25 23 20 12 -3 43 -6 70 -6z
m997 -20 c14 -33 8 -366 -7 -444 -8 -40 -9 -40 -113 -82 -58 -24 -136 -50
-175 -59 -76 -17 -400 -75 -421 -75 -14 0 -3 52 16 75 6 7 18 53 26 101 21
115 13 254 -21 392 -14 57 -25 105 -25 107 0 7 145 11 436 13 l272 2 12 -30z
m-3297 -62 c-41 -136 -43 -349 -7 -554 l6 -31 -66 8 c-185 23 -376 71 -546
139 -104 42 -107 46 -109 131 -1 25 -6 60 -12 78 -8 24 -8 60 0 138 6 59 13
108 15 111 5 4 115 14 376 33 171 12 339 25 356 28 7 0 1 -31 -13 -81z m-863
-30 c-5 -24 -14 -96 -21 -160 -7 -65 -15 -118 -19 -118 -15 0 -88 32 -215 95
-144 71 -282 130 -425 181 l-95 34 230 -4 c127 -3 277 -1 335 3 58 4 130 9
161 9 l56 2 -7 -42z m-1016 -103 c259 -66 442 -134 701 -260 271 -132 536
-244 686 -289 182 -55 445 -95 864 -131 88 -8 241 -21 340 -30 118 -10 276
-15 460 -14 159 0 334 -4 405 -11 138 -14 290 -9 465 15 61 9 180 22 265 30
85 8 223 26 305 39 83 13 151 22 153 21 2 -2 -67 -30 -152 -64 -85 -34 -233
-101 -328 -150 -321 -163 -661 -281 -1018 -353 -232 -47 -707 -23 -1135 58
-485 91 -541 107 -850 256 -473 226 -477 228 -928 548 -246 175 -321 232 -403
309 l-79 74 55 -7 c30 -3 118 -22 194 -41z m4260 -6 c50 -39 22 -119 -43 -119
-33 0 -71 39 -71 72 0 24 44 68 68 68 11 0 31 -9 46 -21z"/>
</g>
</svg>
