<?xml version="1.0" standalone="no"?>
<!DOCTYPE svg PUBLIC "-//W3C//DTD SVG 20010904//EN"
 "http://www.w3.org/TR/2001/REC-SVG-20010904/DTD/svg10.dtd">
<svg version="1.0" xmlns="http://www.w3.org/2000/svg"
 width="1012.000000pt" height="890.000000pt" viewBox="0 0 1012.000000 890.000000"
 preserveAspectRatio="xMidYMid meet">

<g transform="translate(0.000000,890.000000) scale(0.100000,-0.100000)"
fill="#ffffff" stroke="none">
<path d="M4390 7960 c-378 -27 -647 -119 -870 -296 -139 -110 -288 -262 -399
-404 -126 -161 -190 -258 -341 -515 -68 -115 -146 -246 -175 -290 -28 -44 -75
-122 -104 -174 -53 -94 -114 -191 -217 -346 -29 -44 -117 -152 -194 -240 -78
-88 -187 -214 -242 -280 -56 -66 -140 -158 -187 -205 -47 -47 -131 -133 -186
-191 -118 -124 -417 -369 -451 -369 -41 0 -124 -119 -124 -178 0 -79 133 -168
268 -179 l73 -6 -20 -21 c-35 -39 -61 -91 -61 -124 0 -42 25 -87 57 -101 31
-14 31 -60 -1 -90 -31 -29 -50 -99 -42 -148 8 -42 106 -221 147 -268 15 -16
36 -49 47 -71 26 -51 124 -176 212 -269 98 -104 270 -344 450 -628 36 -57 87
-134 114 -171 27 -37 108 -190 181 -339 142 -291 204 -392 366 -592 169 -209
257 -279 504 -403 195 -97 477 -165 1000 -238 172 -25 217 -27 475 -26 299 1
488 12 630 38 106 19 333 92 465 149 156 68 422 202 510 258 85 55 450 313
500 354 51 43 189 176 460 442 143 141 342 337 443 435 100 98 240 246 310
329 142 171 816 871 953 990 111 96 175 177 234 290 37 74 45 97 45 144 0 51
-3 59 -38 93 -48 49 -119 65 -241 55 -62 -5 -107 -2 -160 9 -127 27 -156 65
-79 108 35 19 44 30 50 62 16 75 -21 128 -232 336 -199 198 -772 822 -1041
1135 -90 105 -235 271 -324 370 -88 99 -214 243 -280 320 -138 160 -399 423
-584 589 -332 297 -779 541 -1121 611 -199 41 -552 62 -780 45z m400 -150
c350 -25 554 -79 812 -216 57 -29 148 -76 203 -104 191 -95 394 -259 646 -522
96 -100 185 -196 199 -213 78 -101 207 -253 362 -426 96 -108 244 -277 329
-375 416 -485 1014 -1127 1202 -1291 50 -45 61 -81 33 -118 -13 -19 -15 -19
-55 0 -23 10 -46 24 -53 32 -6 7 -67 53 -136 101 -128 89 -323 254 -423 359
-31 32 -114 130 -184 218 -166 206 -377 447 -485 554 -78 77 -443 387 -734
625 -308 251 -707 488 -931 551 -123 35 -386 82 -531 94 -228 20 -525 -22
-749 -106 -413 -154 -930 -597 -1509 -1294 -67 -80 -173 -208 -236 -285 -153
-186 -272 -303 -405 -399 -60 -44 -181 -134 -267 -200 -87 -66 -217 -163 -290
-215 -72 -52 -154 -114 -182 -137 -41 -35 -57 -43 -90 -43 -74 0 -247 42 -266
65 -19 23 -7 58 28 80 18 11 60 42 95 69 34 27 94 70 132 94 39 25 97 66 130
92 34 26 72 53 85 60 32 17 334 328 432 445 41 50 148 173 237 275 163 185
304 382 416 580 26 47 71 121 98 165 28 44 112 184 187 310 176 297 214 355
324 500 146 192 321 362 498 483 147 101 421 175 703 192 194 11 217 11 375 0z
m329 -916 c176 -22 383 -67 481 -103 227 -83 606 -328 908 -586 61 -52 195
-165 299 -251 265 -222 310 -264 431 -399 59 -66 122 -137 141 -157 44 -50 28
-48 -51 6 -67 46 -182 107 -285 150 -33 14 -135 66 -226 115 -90 48 -204 106
-253 128 -49 22 -145 75 -214 118 -69 43 -154 96 -190 118 -36 21 -108 67
-160 101 -52 34 -140 83 -195 108 -55 25 -163 75 -240 111 -193 91 -235 106
-350 129 -263 51 -523 62 -684 28 -158 -34 -287 -77 -404 -136 -139 -70 -362
-218 -504 -335 -169 -139 -301 -236 -391 -287 -46 -26 -131 -75 -188 -109 -58
-34 -104 -58 -102 -53 2 5 83 101 181 214 275 317 642 653 916 836 196 132
367 201 591 239 209 35 312 38 489 15z m-169 -459 c269 -29 341 -47 550 -145
80 -37 197 -91 260 -120 63 -29 158 -80 210 -115 208 -138 474 -298 552 -332
46 -20 155 -74 243 -122 88 -47 180 -94 205 -105 133 -59 505 -256 580 -306
58 -40 177 -159 225 -225 16 -22 42 -52 59 -68 l31 -27 -30 6 c-16 3 -82 24
-145 46 -146 51 -336 114 -515 172 -144 46 -640 215 -845 287 -63 22 -180 71
-260 109 -146 69 -272 112 -519 176 -146 38 -379 64 -570 64 -166 0 -477 -45
-596 -86 -55 -19 -152 -50 -215 -69 -80 -24 -174 -64 -310 -134 -107 -54 -251
-122 -320 -151 -150 -62 -196 -87 -365 -201 -71 -48 -182 -115 -245 -149 -63
-35 -173 -101 -245 -148 -185 -122 -846 -465 -1000 -518 -87 -31 -204 -58
-213 -50 -2 2 16 29 40 59 38 49 231 202 320 255 15 9 28 19 28 23 0 4 26 26
57 50 32 24 100 79 151 124 52 44 129 105 171 135 199 141 255 193 483 452 32
36 330 233 458 303 167 91 295 180 461 321 158 133 340 256 520 352 117 62
305 119 479 146 58 8 184 5 310 -9z m282 -810 c242 -22 585 -113 769 -206 55
-27 123 -59 152 -71 69 -28 824 -288 1002 -345 77 -24 219 -72 315 -105 96
-33 211 -71 255 -85 44 -13 124 -39 178 -56 57 -18 124 -48 161 -71 77 -51
215 -156 240 -185 19 -21 19 -21 -5 -21 -13 0 -51 5 -84 10 -147 24 -592 80
-710 90 -71 6 -229 22 -350 35 -121 14 -314 32 -430 40 -115 8 -271 19 -345
25 -412 29 -1438 49 -1650 31 -74 -7 -189 -16 -255 -22 -66 -6 -246 -35 -400
-65 -154 -30 -370 -70 -480 -89 -110 -19 -231 -41 -270 -49 -38 -8 -124 -22
-190 -31 -261 -35 -675 -108 -819 -145 -83 -21 -222 -51 -308 -65 -86 -14
-180 -33 -208 -41 -29 -8 -54 -13 -56 -11 -6 6 92 53 159 76 31 11 104 46 164
79 59 33 207 111 328 174 121 63 272 148 335 190 63 41 177 110 254 152 76 42
194 115 263 162 142 96 189 121 363 194 69 28 191 87 272 131 104 57 183 91
275 120 70 23 170 57 222 76 89 32 162 46 426 81 107 14 243 13 427 -3z m808
-1021 c195 -8 400 -19 455 -24 55 -5 172 -14 260 -20 88 -6 239 -20 335 -31
96 -11 249 -27 340 -34 181 -16 512 -56 507 -62 -2 -2 -114 -17 -248 -34 -134
-16 -311 -43 -394 -59 -82 -16 -274 -47 -425 -70 -151 -23 -329 -52 -395 -66
-191 -40 -259 -51 -450 -79 -99 -14 -256 -39 -350 -55 -93 -16 -231 -37 -305
-45 -74 -9 -236 -32 -360 -50 -254 -38 -333 -46 -750 -76 -263 -19 -341 -20
-715 -14 -231 4 -449 9 -485 11 -36 2 -310 5 -610 8 -312 2 -579 9 -625 15
-102 14 -327 62 -339 72 -5 4 13 14 40 22 27 8 83 28 124 45 111 44 209 69
381 98 85 13 222 42 304 64 142 37 593 117 790 140 50 6 158 24 240 40 83 16
209 39 280 50 72 12 266 48 431 81 202 39 349 62 445 69 79 6 178 15 219 19
105 12 876 3 1300 -15z m2075 -400 c-134 -52 -497 -171 -605 -199 -52 -13
-115 -31 -140 -40 -25 -9 -121 -36 -215 -61 -93 -24 -235 -62 -315 -84 -457
-125 -880 -227 -1057 -255 -87 -14 -225 -37 -308 -50 -209 -35 -513 -48 -660
-29 -61 7 -180 16 -265 19 -85 3 -229 12 -320 20 -91 8 -228 19 -305 25 -170
13 -309 32 -525 71 -162 29 -318 63 -250 54 19 -3 206 -8 415 -11 348 -6 410
-4 745 20 432 31 496 38 745 76 105 17 264 39 355 50 91 11 228 32 305 45 77
14 235 38 350 55 116 17 298 49 405 70 107 22 303 56 435 75 132 19 326 51
430 70 105 19 303 49 440 66 138 17 275 35 305 39 123 17 131 12 35 -26z m676
26 c30 -17 23 -35 -28 -72 -102 -73 -483 -396 -713 -604 -189 -170 -511 -433
-625 -509 -49 -33 -198 -116 -330 -184 -132 -68 -336 -178 -453 -243 -278
-156 -387 -200 -962 -387 -320 -104 -409 -129 -564 -157 -78 -14 -222 -46
-321 -70 -285 -71 -463 -78 -786 -35 -161 22 -196 32 -301 90 -40 22 -127 62
-193 89 -66 27 -168 78 -227 113 -58 35 -133 79 -166 97 -45 26 -105 82 -248
234 -157 166 -207 212 -294 271 -58 39 -150 115 -205 167 -55 53 -134 125
-175 160 -41 36 -127 112 -190 170 -63 58 -171 156 -240 217 -69 61 -134 121
-145 133 l-20 23 40 -7 c151 -25 277 -35 480 -37 153 -2 247 -7 280 -16 67
-17 230 -39 397 -53 135 -11 280 -33 548 -85 188 -35 475 -72 665 -85 88 -6
197 -15 242 -20 45 -6 180 -15 300 -20 120 -5 249 -14 287 -20 103 -15 465 4
651 35 83 13 221 36 308 50 140 22 348 70 657 150 308 79 492 129 545 145 33
11 108 31 167 45 59 14 149 38 200 54 51 17 130 39 175 50 96 25 460 145 588
194 91 35 344 101 445 116 81 12 188 13 211 1z m223 -77 c-48 -85 -101 -149
-180 -219 -116 -103 -162 -149 -516 -514 -179 -184 -385 -407 -459 -496 -98
-117 -252 -276 -572 -590 -649 -635 -617 -607 -1021 -885 -120 -83 -453 -256
-625 -325 -131 -53 -297 -103 -396 -120 -112 -18 -576 -38 -750 -31 -238 9
-714 86 -985 159 -211 56 -449 185 -561 303 -159 167 -315 387 -403 570 -32
66 -85 176 -118 245 -56 115 -107 199 -294 478 -38 57 -96 145 -129 196 -153
237 -267 372 -514 609 -67 65 -137 135 -154 155 -18 20 -35 39 -39 40 -5 2 -8
17 -8 32 0 45 31 57 82 30 43 -22 163 -115 188 -145 8 -10 74 -70 145 -134 72
-63 182 -163 245 -221 63 -58 147 -132 185 -165 39 -33 117 -105 175 -160 58
-56 152 -133 210 -172 88 -60 135 -103 290 -267 193 -205 208 -218 349 -295
47 -27 113 -64 146 -85 32 -20 95 -51 140 -69 44 -17 137 -60 207 -94 159 -78
193 -87 403 -113 301 -36 475 -25 785 49 113 27 266 60 340 75 134 25 226 52
683 200 426 138 568 198 837 351 85 49 275 150 422 226 146 75 304 162 350
193 110 73 452 353 650 531 170 154 452 394 638 542 63 51 131 108 150 127 30
30 42 35 83 36 l48 0 -27 -47z"/>
</g>
</svg>
