<?xml version="1.0" standalone="no"?>
<!DOCTYPE svg PUBLIC "-//W3C//DTD SVG 20010904//EN"
 "http://www.w3.org/TR/2001/REC-SVG-20010904/DTD/svg10.dtd">
<svg version="1.0" xmlns="http://www.w3.org/2000/svg"
 width="1012.000000pt" height="890.000000pt" viewBox="0 0 1012.000000 890.000000"
 preserveAspectRatio="xMidYMid meet">

<g transform="translate(0.000000,890.000000) scale(0.100000,-0.100000)"
fill="#ffffff" stroke="none">
<path d="M4390 7960 c-378 -27 -647 -119 -870 -296 -139 -110 -288 -262 -399
-404 -126 -161 -190 -258 -341 -515 -68 -115 -146 -246 -175 -290 -28 -44 -75
-122 -104 -174 -53 -94 -114 -191 -217 -346 -29 -44 -117 -152 -194 -240 -78
-88 -187 -214 -242 -280 -56 -66 -140 -158 -187 -205 -47 -47 -131 -133 -186
-191 -118 -124 -417 -369 -451 -369 -41 0 -124 -119 -124 -178 0 -79 133 -168
268 -179 l73 -6 -20 -21 c-35 -39 -61 -91 -61 -125 0 -46 34 -98 75 -112 l34
-13 -38 -43 c-45 -50 -66 -116 -57 -170 8 -42 106 -221 147 -268 15 -16 36
-49 47 -71 26 -51 124 -176 212 -269 98 -104 270 -344 450 -628 36 -57 87
-134 114 -171 27 -37 108 -190 181 -339 142 -291 204 -392 366 -592 169 -209
257 -279 504 -403 195 -97 477 -165 1000 -238 172 -25 217 -27 475 -26 299 1
488 12 630 38 106 19 333 92 465 149 156 68 422 202 510 258 85 55 450 313
500 354 51 43 189 176 460 442 143 141 342 337 443 435 100 98 240 246 310
329 142 171 816 871 953 990 111 96 175 177 234 290 37 74 45 97 45 144 0 51
-3 59 -38 93 -50 50 -115 64 -255 54 -97 -6 -106 -5 -172 21 -111 44 -120 60
-53 97 35 19 44 30 50 62 16 75 -21 128 -232 336 -199 198 -772 822 -1041
1135 -90 105 -235 271 -324 370 -88 99 -214 243 -280 320 -138 160 -399 423
-584 589 -332 297 -779 541 -1121 611 -199 41 -552 62 -780 45z m565 -165
c210 -25 344 -61 540 -147 199 -88 496 -280 670 -433 170 -151 454 -436 583
-585 64 -74 202 -232 307 -350 105 -118 247 -280 315 -360 377 -440 991 -1098
1173 -1257 50 -45 61 -81 33 -118 -13 -19 -15 -19 -55 0 -23 10 -46 24 -53 32
-6 7 -67 53 -136 101 -128 89 -323 254 -423 359 -31 32 -114 130 -184 218
-166 206 -377 447 -485 554 -78 77 -443 387 -734 625 -308 251 -707 488 -931
551 -123 35 -386 82 -531 94 -228 20 -525 -22 -749 -106 -413 -154 -930 -597
-1509 -1294 -67 -80 -173 -208 -236 -285 -153 -186 -272 -303 -405 -399 -60
-44 -181 -134 -267 -200 -87 -66 -217 -163 -290 -215 -72 -52 -154 -114 -182
-137 -41 -35 -57 -43 -90 -43 -74 0 -247 42 -266 65 -19 23 -7 58 28 80 18 11
60 42 95 69 34 27 94 70 132 94 39 25 97 66 130 92 34 26 72 53 85 60 32 17
334 328 432 445 41 50 148 173 237 275 163 185 304 382 416 580 26 47 71 121
98 165 28 44 112 184 187 310 176 297 214 355 324 500 146 192 321 362 498
483 54 37 177 92 275 122 237 73 621 95 968 55z m164 -901 c176 -22 383 -67
481 -103 227 -83 606 -328 908 -586 61 -52 195 -165 299 -251 265 -222 310
-264 431 -399 59 -66 122 -137 141 -157 44 -50 28 -48 -51 6 -67 46 -182 107
-285 150 -33 14 -135 66 -226 115 -90 48 -204 106 -253 128 -49 22 -145 75
-214 118 -69 43 -154 96 -190 118 -36 21 -108 67 -160 101 -52 34 -140 83
-195 108 -55 25 -163 75 -240 111 -193 91 -235 106 -350 129 -263 51 -523 62
-684 28 -158 -34 -287 -77 -404 -136 -139 -70 -362 -218 -504 -335 -169 -139
-301 -236 -391 -287 -46 -26 -131 -75 -188 -109 -58 -34 -104 -58 -102 -53 2
5 83 101 181 214 275 317 642 653 916 836 196 132 367 201 591 239 209 35 312
38 489 15z m-169 -459 c269 -29 341 -47 550 -145 80 -37 197 -91 260 -120 63
-29 158 -80 210 -115 211 -140 475 -299 557 -335 49 -21 149 -70 223 -110 192
-102 191 -102 343 -174 76 -36 160 -81 186 -100 26 -20 79 -49 117 -66 102
-46 168 -96 231 -173 64 -80 63 -80 -87 -10 -52 25 -176 76 -275 114 -99 39
-236 101 -306 140 -128 70 -302 146 -464 201 -49 17 -166 64 -259 105 -219 96
-646 244 -788 272 -250 50 -675 60 -978 23 -232 -28 -603 -113 -847 -193 -176
-58 -690 -328 -912 -478 -67 -46 -69 -42 -12 26 40 49 326 244 481 328 167 91
295 180 461 321 158 133 340 256 520 352 117 62 305 119 479 146 58 8 184 5
310 -9z m130 -560 c303 -23 333 -28 535 -91 229 -70 412 -137 573 -208 92 -41
208 -88 257 -105 162 -57 340 -132 421 -177 120 -68 230 -119 387 -178 184
-71 366 -153 488 -221 53 -30 100 -55 104 -55 4 0 57 -43 118 -97 120 -104
194 -160 356 -271 57 -40 101 -72 98 -72 -31 0 -266 57 -344 84 -183 63 -735
271 -939 354 -374 154 -874 277 -1564 386 -625 99 -801 111 -1205 81 -537 -39
-899 -152 -1550 -484 -170 -88 -339 -171 -375 -186 -36 -15 -157 -69 -270
-120 -200 -91 -256 -112 -392 -154 -37 -12 -131 -51 -208 -87 -77 -36 -144
-64 -150 -62 -14 4 120 115 269 223 68 50 168 124 223 165 55 41 143 107 197
145 101 73 214 161 291 228 24 21 74 55 110 75 36 19 144 86 240 148 231 147
335 206 574 326 237 118 323 152 511 202 384 100 516 124 855 155 141 12 187
12 390 -4z m125 -773 c116 -17 280 -40 365 -51 85 -12 178 -28 205 -36 28 -8
115 -26 195 -40 133 -23 345 -69 545 -116 44 -11 132 -36 194 -55 111 -35 117
-38 184 -102 104 -100 182 -215 219 -322 21 -62 23 -81 23 -360 0 -431 -22
-536 -199 -965 -56 -134 -114 -189 -416 -391 -135 -90 -276 -186 -314 -214
-95 -69 -336 -208 -410 -237 -33 -14 -97 -39 -141 -58 -125 -52 -374 -105
-494 -105 -25 0 -97 -7 -162 -16 -100 -14 -150 -14 -365 -5 -138 6 -302 20
-368 30 -110 18 -124 23 -180 62 -34 23 -80 55 -103 71 -62 43 -57 59 32 101
187 89 338 245 435 452 63 132 74 187 74 375 1 179 -16 282 -70 446 -72 216
-191 348 -425 472 -114 61 -142 69 -290 77 -143 8 -317 -19 -419 -66 -80 -37
-163 -100 -191 -146 -27 -43 -43 -31 -36 29 3 23 10 90 17 148 47 417 63 484
154 625 117 181 244 258 562 339 296 75 501 96 904 91 228 -3 294 -8 475 -33z
m-2079 -339 c-23 -75 -58 -224 -71 -303 -9 -52 -33 -185 -55 -295 -54 -279
-64 -392 -57 -614 6 -194 23 -336 57 -477 23 -97 98 -299 147 -398 19 -37 32
-70 30 -72 -14 -14 -317 315 -406 441 -107 151 -478 585 -499 585 -4 0 -58 47
-120 104 -109 101 -260 209 -407 293 -93 53 -115 67 -115 74 0 11 175 88 240
105 176 47 748 309 1200 550 54 28 63 29 56 7z m4279 -220 c359 -135 560 -208
640 -235 107 -35 352 -87 414 -88 l45 0 -30 -31 c-42 -46 -257 -229 -513 -439
-124 -101 -267 -219 -319 -262 -51 -44 -137 -111 -190 -151 -54 -39 -152 -115
-219 -169 -68 -55 -123 -97 -123 -94 0 2 15 44 34 93 95 250 129 408 147 687
9 139 7 208 -6 390 -10 122 -23 251 -30 289 -14 79 -32 78 150 10z m1609 -390
c-48 -85 -101 -149 -180 -219 -116 -103 -162 -149 -516 -514 -179 -184 -385
-407 -459 -496 -98 -117 -252 -276 -572 -590 -649 -635 -617 -607 -1021 -885
-120 -83 -453 -256 -625 -325 -131 -53 -297 -103 -396 -120 -112 -18 -576 -38
-750 -31 -238 9 -714 86 -985 159 -211 56 -449 185 -561 303 -159 167 -315
387 -403 570 -32 66 -85 176 -118 245 -56 115 -107 199 -294 478 -38 57 -96
145 -129 196 -141 218 -342 460 -491 591 -31 28 -75 75 -97 105 -22 30 -53 69
-70 87 -29 31 -30 53 -1 53 37 0 397 -320 561 -498 45 -49 115 -129 154 -178
40 -49 126 -148 190 -219 132 -146 311 -379 402 -524 33 -53 86 -134 117 -181
31 -47 85 -136 121 -199 67 -120 135 -205 172 -217 12 -4 53 -33 92 -66 100
-85 173 -126 421 -234 308 -136 348 -149 582 -193 464 -89 731 -60 1217 131
240 94 592 268 740 366 66 43 175 121 241 173 67 52 177 134 245 184 251 182
498 410 744 685 149 168 182 199 415 395 199 166 473 440 581 578 46 60 99
128 116 150 18 23 49 61 69 83 19 23 44 54 54 70 29 48 82 90 130 104 44 13
159 25 273 28 l58 2 -27 -47z m-7383 -264 c68 -40 162 -98 209 -129 225 -151
582 -523 794 -828 121 -172 387 -442 591 -597 221 -168 613 -364 826 -414 277
-65 597 -83 979 -57 411 29 541 59 820 190 216 100 386 197 494 279 72 55 175
123 414 275 223 142 339 224 499 354 98 79 230 182 294 230 64 47 158 121 210
165 101 85 374 309 399 327 8 6 -38 -44 -102 -112 -64 -67 -177 -173 -251
-236 -320 -268 -365 -311 -606 -578 -192 -213 -434 -430 -672 -602 -68 -50
-173 -128 -233 -175 -60 -47 -159 -118 -220 -159 -221 -147 -745 -385 -1028
-466 -192 -55 -310 -69 -523 -63 -161 4 -201 9 -380 45 -221 45 -217 44 -500
167 -304 132 -361 165 -495 292 -31 28 -67 56 -81 62 -18 6 -44 41 -86 113
-33 56 -69 117 -79 135 -10 18 -72 113 -136 212 -151 232 -302 433 -449 596
-64 72 -154 175 -199 230 -130 160 -372 398 -470 462 -47 30 -110 72 -140 92
-30 21 -81 52 -112 70 -87 49 -79 78 43 156 30 19 57 35 60 35 3 0 61 -32 130
-71z"/>
</g>
</svg>
