<?xml version="1.0" standalone="no"?>
<!DOCTYPE svg PUBLIC "-//W3C//DTD SVG 20010904//EN"
 "http://www.w3.org/TR/2001/REC-SVG-20010904/DTD/svg10.dtd">
<svg version="1.0" xmlns="http://www.w3.org/2000/svg"
 width="1122.000000pt" height="1089.000000pt" viewBox="0 0 1122.000000 1089.000000"
 preserveAspectRatio="xMidYMid meet">

<g transform="translate(0.000000,1089.000000) scale(0.100000,-0.100000)"
fill="#ffffff" stroke="none">
<path d="M3790 10669 c-46 -19 -79 -61 -101 -130 -19 -61 -21 -83 -16 -265 4
-175 9 -223 41 -394 121 -645 136 -768 171 -1410 9 -162 20 -312 25 -332 8
-37 7 -38 -63 -95 -131 -105 -391 -344 -471 -432 -116 -127 -186 -225 -309
-431 -154 -259 -198 -345 -255 -500 -53 -140 -146 -441 -158 -507 -3 -21 -19
-92 -34 -158 -15 -66 -33 -151 -40 -188 -14 -76 -59 -153 -139 -237 -43 -45
-55 -52 -176 -90 -71 -23 -143 -41 -160 -40 -16 0 -138 2 -270 4 -248 3 -289
7 -610 56 -258 40 -418 54 -555 47 -184 -9 -344 -60 -381 -121 -43 -70 -15
-126 112 -220 188 -140 1154 -795 1284 -871 19 -11 36 -28 39 -39 3 -12 10
-16 20 -13 9 4 95 -47 223 -133 234 -155 366 -258 388 -300 8 -15 20 -30 27
-33 16 -6 16 -135 0 -512 -20 -458 -18 -720 7 -955 28 -255 41 -556 31 -720
-18 -288 101 -1462 159 -1565 35 -63 118 -79 175 -34 38 30 46 73 30 165 -60
346 -115 865 -128 1226 -3 65 -7 121 -10 126 -6 10 -33 255 -48 437 -12 160
-16 687 -8 1155 5 293 -7 519 -34 630 -15 62 -42 121 -62 133 -7 4 -21 42 -31
85 -30 128 -24 584 10 755 5 23 -24 16 -33 -8 -14 -37 -40 -319 -40 -434 0
-93 15 -265 26 -306 5 -18 4 -18 -15 2 -11 14 -24 50 -30 90 -18 116 -61 451
-61 478 0 24 -24 45 -36 32 -5 -5 48 -447 62 -522 6 -30 5 -29 -45 19 -46 46
-52 56 -73 140 -20 81 -23 115 -23 304 0 163 -3 212 -12 212 -7 0 -13 -6 -14
-12 0 -7 -4 -2 -10 10 -5 13 -15 22 -21 19 -18 -6 -12 -195 12 -402 10 -88 16
-161 15 -163 -2 -2 -41 24 -88 57 l-84 61 -23 138 c-12 77 -24 208 -27 300 -4
117 -9 162 -18 162 -29 0 -23 -278 11 -474 8 -48 13 -90 10 -93 -2 -2 -13 1
-24 8 -27 17 -34 72 -31 238 3 117 1 136 -13 139 -21 4 -32 -123 -22 -250 l7
-91 -47 34 -48 34 3 115 c2 63 1 120 -3 125 -3 6 -9 72 -13 148 -4 75 -11 140
-17 143 -25 15 -28 -19 -17 -188 6 -96 8 -205 5 -241 l-8 -67 -39 23 -40 22 4
120 c3 66 8 132 12 147 8 32 -10 39 -30 12 -9 -13 -14 6 -25 100 -7 64 -17
119 -22 122 -4 3 -5 30 -2 60 6 44 4 54 -8 54 -9 0 -19 -10 -22 -22 -12 -44
-19 -254 -11 -371 6 -104 9 -117 25 -117 17 0 18 9 15 98 l-4 97 14 -85 c14
-91 19 -190 9 -190 -4 0 -30 13 -59 30 -50 28 -52 32 -58 79 -3 28 -4 65 -2
83 15 122 15 138 -4 138 -20 0 -30 -46 -32 -144 l-1 -51 -15 45 c-23 73 -63
272 -63 317 0 23 -4 44 -9 48 -6 3 -13 26 -17 50 -5 40 -20 56 -36 40 -3 -3 4
-56 14 -118 14 -82 17 -117 9 -129 -6 -10 -11 -63 -11 -119 l0 -101 -47 34
c-55 39 -61 60 -62 196 -1 66 -4 82 -16 82 -12 0 -15 -18 -15 -105 0 -58 -2
-105 -5 -105 -2 0 -15 5 -29 11 -32 15 -41 38 -21 53 15 10 14 22 -4 126 -12
62 -21 117 -21 122 0 4 -7 8 -15 8 -19 0 -19 -35 0 -136 13 -69 13 -79 0 -87
-8 -4 -15 -15 -15 -24 0 -14 -2 -14 -22 -1 -19 13 -24 27 -28 82 -6 77 -23 91
-30 26 -5 -44 -6 -42 -32 64 -15 60 -30 111 -33 114 -3 3 -10 1 -17 -6 -8 -8
-5 -35 11 -104 11 -51 21 -97 21 -101 0 -5 -14 2 -31 14 -30 21 -30 24 -27 88
2 53 0 66 -12 66 -11 0 -16 -14 -18 -58 -2 -32 -6 -57 -10 -55 -64 32 -64 32
-57 57 11 44 10 64 -1 68 -6 2 -16 -9 -23 -23 -16 -35 -27 -23 -55 58 -15 42
-28 64 -40 66 -15 3 -18 0 -12 -21 3 -14 2 -37 -4 -51 l-9 -25 -60 40 c-67 45
-84 77 -71 134 13 56 45 85 95 85 22 0 45 4 51 10 13 13 172 14 214 1 19 -6
56 -11 83 -11 26 0 98 -11 160 -24 62 -14 182 -36 267 -51 157 -26 343 -63
459 -92 130 -33 418 -13 607 42 96 28 225 193 278 355 8 25 35 104 60 175 25
72 55 177 66 235 21 107 142 464 210 623 38 89 224 415 306 537 87 129 202
255 384 417 102 91 201 180 220 198 65 60 90 197 90 506 0 169 -16 366 -55
664 -9 66 -23 172 -31 235 -8 63 -26 176 -39 250 -13 74 -29 180 -35 234 -6
55 -19 134 -30 176 -22 88 -44 227 -60 390 -12 124 -3 182 32 204 45 28 83
-17 234 -282 l53 -92 -49 -25 c-47 -24 -62 -46 -41 -59 7 -5 74 20 112 41 9 5
41 -70 32 -76 -4 -3 -21 -23 -36 -44 -16 -21 -45 -45 -65 -55 -42 -19 -49 -45
-14 -50 30 -5 95 38 118 78 10 16 21 30 24 30 3 0 32 -56 65 -125 32 -69 75
-151 96 -182 l37 -57 -18 -36 c-26 -50 -106 -124 -167 -155 -52 -25 -67 -50
-39 -61 37 -14 190 97 237 172 l20 34 23 -28 c13 -15 42 -54 65 -86 l41 -60
-37 -38 c-21 -22 -66 -53 -100 -70 -61 -30 -78 -53 -48 -64 23 -9 119 40 169
86 l45 42 31 -61 c21 -42 26 -61 17 -61 -7 0 -24 -12 -38 -26 -13 -14 -48 -40
-76 -56 -51 -29 -65 -50 -42 -63 16 -11 117 45 152 85 l32 35 68 -97 c66 -95
67 -98 53 -126 -23 -44 -105 -115 -183 -158 -48 -25 -73 -45 -73 -56 0 -27 24
-22 104 19 45 24 95 61 138 104 l67 68 15 -24 c9 -14 16 -29 16 -34 0 -21
-130 -125 -197 -157 -40 -20 -73 -39 -73 -43 0 -5 6 -14 14 -20 26 -22 153 50
254 143 l42 39 108 -113 c59 -62 108 -119 110 -126 5 -20 -43 -111 -91 -173
-45 -58 -117 -120 -191 -164 -26 -15 -46 -33 -43 -40 23 -69 262 128 337 278
19 39 36 72 37 74 1 2 16 -2 34 -9 28 -12 30 -16 24 -49 -18 -101 -96 -211
-203 -286 -50 -35 -71 -56 -72 -71 0 -38 30 -37 89 3 121 82 213 202 241 316
13 51 23 56 58 31 84 -59 24 -178 -188 -372 -95 -88 -150 -130 -207 -159 -90
-47 -98 -49 -222 -63 -106 -12 -151 -36 -151 -80 0 -51 24 -60 156 -59 102 0
125 3 161 22 23 12 76 39 117 59 96 47 220 141 285 216 27 31 75 86 106 122
66 77 120 179 137 261 10 50 15 59 37 64 120 24 391 43 391 26 0 -6 -81 -146
-180 -311 -188 -315 -199 -339 -164 -388 18 -26 65 -52 94 -52 55 0 76 26 233
287 84 142 173 293 197 337 23 43 55 93 70 110 14 17 58 90 97 161 39 72 120
216 181 322 61 105 182 324 268 485 86 161 169 314 183 340 23 42 30 48 59 48
77 0 142 -58 142 -127 0 -18 -2 -33 -5 -33 -3 0 -24 9 -46 20 -42 22 -59 20
-59 -9 0 -18 37 -41 65 -41 17 0 20 -37 5 -60 -7 -12 -16 -13 -55 -2 -62 17
-75 15 -75 -8 0 -15 12 -23 56 -36 l56 -16 -7 -36 c-10 -52 -12 -54 -52 -37
-32 14 -39 14 -51 1 -20 -19 -8 -33 40 -48 l40 -12 -6 -50 c-3 -28 -6 -59 -6
-70 0 -20 -18 -20 -123 0 -37 7 -39 6 -35 -17 3 -21 12 -26 76 -39 l73 -14 -6
-36 c-4 -19 -9 -38 -11 -41 -4 -8 -54 3 -95 19 -26 10 -49 1 -49 -20 0 -11 51
-35 93 -43 35 -7 37 -9 37 -47 0 -39 0 -40 -32 -33 -18 4 -57 18 -87 31 -63
28 -77 29 -85 9 -7 -20 37 -47 125 -75 65 -21 69 -24 69 -53 l0 -30 -110 7
c-105 7 -110 6 -110 -12 0 -24 17 -29 128 -38 l84 -7 -6 -30 c-3 -16 -6 -38
-6 -48 0 -14 -7 -19 -28 -19 -30 0 -131 28 -204 56 -37 14 -51 15 -59 7 -9 -9
-9 -16 0 -27 16 -19 137 -63 216 -77 l65 -12 0 -35 0 -35 -74 6 c-41 4 -109
18 -152 32 -95 30 -114 31 -114 6 0 -29 134 -74 263 -87 60 -6 67 -9 67 -28 0
-12 -6 -30 -13 -41 -12 -16 -23 -17 -79 -11 -37 3 -88 13 -114 21 -42 12 -51
12 -63 1 -7 -8 -11 -18 -7 -24 10 -16 119 -42 189 -44 68 -3 71 -5 60 -47 -6
-23 -8 -23 -72 -16 -113 12 -116 12 -116 -10 0 -17 12 -22 85 -35 l85 -15 -9
-48 -9 -49 -56 6 c-97 12 -164 27 -240 57 -56 23 -76 27 -87 18 -8 -6 -11 -16
-8 -21 20 -32 238 -98 326 -98 26 0 49 -3 51 -7 2 -5 -12 -74 -31 -155 -33
-137 -37 -148 -58 -148 -28 0 -177 53 -210 75 -33 21 -64 19 -64 -4 0 -23 149
-94 237 -112 l62 -13 6 -40 c4 -23 5 -70 3 -106 l-3 -65 -70 1 c-78 0 -196 35
-374 111 -101 43 -131 48 -131 20 0 -39 413 -187 520 -187 l46 0 -4 -40 c-3
-26 -10 -41 -21 -45 -32 -10 -127 24 -345 125 -121 55 -226 98 -233 95 -39
-14 1 -42 187 -127 253 -116 311 -138 366 -138 l45 0 -3 -42 -3 -43 -70 1
c-82 2 -245 52 -423 132 -106 47 -142 52 -129 19 10 -27 257 -132 417 -178 36
-11 105 -22 153 -26 48 -3 90 -10 93 -15 7 -11 82 1 117 19 47 24 57 64 57
235 0 84 5 207 10 273 11 117 58 466 64 473 6 5 96 -41 96 -50 0 -4 -8 -8 -18
-8 -39 0 -58 -55 -27 -80 12 -10 32 -10 97 0 46 7 92 10 103 8 11 -3 -11 -8
-50 -13 -78 -8 -95 -17 -95 -50 0 -40 23 -49 107 -41 78 6 123 25 123 51 0 11
13 7 50 -16 28 -17 50 -32 50 -34 0 -1 -39 -17 -87 -35 -49 -18 -94 -37 -101
-43 -18 -14 -11 -57 10 -71 20 -12 108 15 211 65 l58 28 91 -77 c51 -42 92
-81 91 -87 0 -5 -80 -57 -177 -114 -97 -58 -179 -114 -182 -123 -8 -27 4 -55
26 -61 13 -3 84 33 212 109 105 63 195 114 198 114 4 0 15 -9 26 -21 18 -20
18 -21 -1 -35 -38 -28 -160 -92 -238 -124 -42 -18 -82 -41 -88 -51 -11 -22 1
-53 25 -62 24 -9 197 67 321 141 33 20 66 37 74 39 8 1 45 16 81 32 36 17 89
35 117 40 34 7 103 39 200 94 81 47 263 146 403 222 140 75 365 198 500 273
260 144 584 305 638 317 43 9 126 -19 152 -52 11 -14 25 -43 32 -65 10 -33 9
-48 -7 -94 -33 -97 -36 -97 -90 -5 -26 45 -50 79 -53 77 -10 -11 9 -54 41 -92
l35 -39 -22 -44 -23 -43 -45 52 c-38 43 -50 51 -74 48 -24 -2 -29 -8 -32 -34
-3 -26 6 -42 51 -90 60 -66 64 -88 12 -78 -27 5 -36 2 -49 -17 -15 -21 -14
-25 5 -58 l21 -35 -38 -78 c-21 -43 -41 -78 -45 -78 -4 0 -22 23 -40 50 -26
40 -38 50 -60 50 -18 0 -32 -7 -39 -20 -12 -22 7 -64 62 -138 l32 -42 -22 -46
c-25 -51 -19 -52 -96 10 -32 25 -40 27 -61 18 -17 -8 -25 -20 -25 -36 0 -26
21 -50 82 -96 l37 -27 -25 -53 c-27 -59 -23 -60 -105 18 -35 32 -52 42 -66 38
-15 -5 -29 4 -55 36 -55 67 -137 197 -169 266 -27 61 -30 63 -61 60 -28 -3
-33 -7 -36 -33 -5 -40 71 -186 152 -295 60 -80 183 -207 234 -242 20 -14 21
-18 11 -42 -7 -14 -15 -26 -19 -26 -15 0 -126 80 -156 112 -17 18 -38 46 -45
62 -29 61 -81 60 -87 -3 -4 -39 23 -84 82 -139 33 -30 126 -97 164 -118 8 -5
-69 -154 -80 -154 -18 0 -218 204 -256 261 -49 73 -121 219 -138 279 -9 30
-24 62 -35 72 -21 18 -58 13 -66 -9 -13 -33 38 -176 122 -345 26 -53 177 -238
194 -238 9 0 45 -29 79 -63 l63 -64 -42 -86 c-24 -48 -50 -89 -59 -92 -41 -17
-222 258 -270 410 -22 71 -67 96 -94 53 -22 -35 57 -229 148 -366 46 -70 138
-173 169 -189 16 -8 14 -17 -25 -106 -30 -71 -44 -94 -50 -83 -6 10 -2 22 12
36 11 11 20 24 20 30 0 5 -38 46 -84 91 -68 65 -108 117 -202 262 -64 100
-130 196 -145 213 -42 43 -143 249 -174 352 -31 102 -40 114 -73 110 -44 -5
-48 -27 -22 -119 45 -157 212 -464 365 -669 35 -47 109 -161 165 -255 l103
-169 -18 -53 c-10 -29 -22 -53 -26 -53 -4 0 -43 38 -87 85 -155 163 -278 388
-307 557 -6 40 -32 62 -60 52 -27 -11 -35 -39 -26 -91 36 -186 172 -424 341
-595 100 -102 107 -121 41 -111 -44 7 -59 19 -43 35 26 26 13 54 -44 93 -105
72 -164 141 -225 260 -31 61 -65 133 -75 160 -10 28 -30 61 -44 75 -28 26 -83
165 -102 254 -12 61 -23 76 -53 76 -58 0 -56 -58 5 -232 21 -59 37 -108 36
-108 -1 0 -29 34 -62 75 -45 57 -65 74 -84 75 -30 0 -50 -16 -50 -41 0 -18
190 -254 333 -414 49 -55 120 -140 158 -190 38 -49 81 -105 96 -124 27 -33 27
-34 4 -22 -12 7 -32 11 -42 8 -44 -12 -330 351 -547 695 -48 76 -95 140 -104
143 -26 9 -58 -13 -58 -39 0 -23 130 -232 244 -395 54 -76 54 -76 32 -92 -20
-16 -23 -15 -76 27 -30 24 -84 73 -120 109 -35 36 -70 65 -77 65 -7 0 -20 -8
-29 -19 -15 -17 -18 -16 -58 28 -23 25 -54 63 -70 84 -30 41 -60 46 -80 15
-34 -54 134 -224 519 -527 38 -29 111 -74 164 -100 53 -25 124 -64 158 -85 33
-21 76 -42 95 -46 69 -19 339 -115 330 -118 -5 -1 -63 6 -128 17 -66 12 -198
28 -294 37 -135 12 -181 20 -201 34 -14 10 -52 31 -85 48 -61 31 -208 135
-233 165 -26 32 -81 15 -81 -24 0 -23 75 -88 185 -160 100 -65 121 -81 126
-98 6 -18 64 -28 254 -46 173 -16 450 -57 518 -77 25 -8 37 -17 37 -30 0 -23
-55 -24 -167 -3 -43 8 -163 24 -268 35 -193 20 -246 31 -550 114 -184 50 -219
55 -233 30 -18 -32 -2 -54 52 -68 446 -124 489 -133 656 -151 80 -9 190 -23
246 -31 55 -8 108 -12 118 -8 9 3 43 1 75 -7 55 -12 58 -14 57 -42 l-1 -29
-135 7 c-203 10 -300 22 -467 60 -178 41 -189 42 -203 15 -22 -41 0 -54 150
-89 187 -44 295 -59 473 -67 81 -4 144 -10 140 -14 -4 -4 -75 -20 -157 -35
-119 -22 -166 -27 -230 -22 -84 6 -280 56 -399 101 -81 31 -103 32 -117 6 -21
-39 2 -56 147 -104 261 -86 380 -105 513 -82 47 9 86 13 88 11 4 -4 -211 -75
-288 -95 -56 -15 -70 -26 -70 -55 0 -46 24 -51 119 -25 47 13 118 26 156 30
58 6 116 24 211 66 6 3 14 -6 16 -20 5 -24 0 -27 -76 -54 -190 -69 -363 -110
-620 -147 -99 -14 -185 -30 -193 -36 -18 -15 -17 -54 2 -69 13 -10 51 -8 203
14 224 32 391 69 565 126 71 23 130 40 131 38 38 -57 37 -56 8 -76 -69 -48
-138 -80 -152 -72 -10 5 -47 -1 -100 -16 -142 -41 -316 -72 -500 -89 -149 -14
-177 -19 -192 -35 -21 -25 -12 -59 17 -66 12 -3 94 1 181 9 144 14 161 14 176
0 24 -21 138 -11 256 23 87 25 287 115 341 153 l28 20 25 -75 c16 -50 20 -73
12 -70 -7 3 -69 -15 -138 -39 -244 -86 -399 -117 -769 -150 -72 -7 -95 -25
-82 -65 9 -29 33 -32 172 -20 247 21 469 65 671 135 169 58 163 55 172 79 7
19 10 15 29 -28 12 -27 20 -50 19 -51 -15 -13 -183 -90 -258 -118 -153 -57
-241 -71 -408 -64 -142 6 -142 6 -158 -18 -12 -18 -13 -28 -5 -44 15 -28 73
-34 254 -28 195 6 277 29 573 163 13 6 39 -105 27 -116 -10 -10 -231 -90 -344
-124 -143 -44 -260 -66 -349 -66 -91 0 -110 -8 -110 -45 0 -38 19 -45 120 -45
120 0 254 30 490 109 252 84 233 83 245 19 l7 -37 -89 -45 c-93 -46 -237 -99
-357 -131 -52 -14 -71 -24 -79 -42 -9 -20 -7 -27 11 -45 l21 -22 118 33 c65
18 174 58 243 88 164 72 165 72 150 43 -6 -12 -10 -38 -8 -56 3 -30 1 -34 -19
-34 -12 0 -53 -20 -90 -44 -186 -120 -407 -196 -568 -196 -60 0 -78 -14 -73
-57 3 -27 6 -28 63 -31 169 -9 422 73 620 202 39 25 73 46 78 46 4 0 7 -9 7
-19 0 -41 -373 -246 -604 -331 -141 -52 -162 -66 -152 -103 3 -14 14 -28 24
-31 50 -16 480 176 676 301 37 24 70 43 71 41 2 -2 6 -48 10 -104 l7 -101
-133 -66 c-202 -99 -400 -162 -589 -187 -104 -14 -136 -43 -93 -85 46 -47 425
48 686 173 75 36 139 63 141 61 2 -2 6 -34 9 -71 l6 -67 -132 -65 c-165 -81
-276 -116 -391 -124 -101 -8 -119 -20 -98 -68 l13 -27 97 5 c81 4 118 12 222
48 69 24 150 55 180 71 71 35 129 59 145 59 7 0 18 -21 24 -47 10 -37 9 -48
-1 -54 -47 -30 -423 -141 -568 -169 -222 -42 -238 -47 -245 -70 -9 -28 12 -60
39 -60 58 0 383 73 486 109 291 103 318 110 335 92 23 -27 19 -78 -7 -92 -31
-17 -289 -126 -368 -156 -105 -40 -267 -80 -388 -97 -62 -9 -114 -16 -117 -16
-9 0 -35 -33 -35 -45 0 -7 7 -21 16 -30 22 -22 137 -12 176 16 14 10 100 37
190 59 89 23 190 52 223 64 33 13 69 23 80 24 11 0 77 25 147 55 l126 55 7
-46 c6 -41 4 -49 -17 -65 -37 -31 -179 -99 -193 -93 -7 2 -47 -9 -89 -25 -192
-74 -502 -147 -666 -156 -112 -6 -130 -13 -130 -47 0 -38 19 -46 105 -46 208
0 636 113 913 241 47 22 87 37 89 35 3 -2 8 -30 12 -61 l8 -56 -37 -19 c-208
-106 -538 -205 -782 -235 -73 -9 -143 -18 -155 -20 -27 -6 -38 -37 -22 -66 11
-21 16 -21 103 -15 235 16 527 93 795 207 63 27 117 47 120 43 3 -3 6 -33 6
-67 l0 -61 -80 -42 c-269 -144 -666 -249 -1080 -285 -75 -7 -140 -17 -152 -25
-29 -18 -29 -50 0 -68 44 -28 481 30 742 99 203 53 460 149 543 203 12 8 25
12 29 9 6 -7 26 -208 21 -211 -126 -90 -316 -182 -496 -240 -205 -66 -359 -95
-652 -121 -200 -18 -207 -19 -215 -45 -10 -32 12 -60 48 -60 107 0 476 44 602
71 242 52 534 166 673 261 24 17 45 28 47 26 1 -1 4 -36 6 -77 l4 -75 -65 -32
c-83 -41 -270 -104 -428 -144 -180 -45 -376 -76 -636 -101 -189 -19 -233 -26
-248 -41 -23 -23 -23 -33 2 -58 13 -13 28 -18 43 -15 12 2 101 12 197 20 238
22 469 58 657 105 170 42 366 106 443 145 l48 24 6 -22 c3 -12 6 -43 6 -69 l0
-48 -67 -34 c-141 -70 -423 -160 -648 -206 -152 -31 -335 -50 -485 -50 -143 0
-160 -5 -160 -46 0 -44 17 -47 228 -41 108 3 241 12 295 21 241 39 513 114
720 200 l127 53 0 -37 0 -38 -97 -47 c-263 -128 -630 -212 -938 -215 -138 -2
-175 -12 -175 -50 0 -10 8 -26 17 -36 15 -15 33 -16 163 -10 350 16 684 93
946 215 l84 40 0 -50 0 -50 -93 -44 c-121 -58 -332 -128 -478 -159 -206 -45
-346 -59 -607 -60 -211 -2 -244 -4 -259 -19 -13 -13 -14 -21 -5 -41 15 -34 76
-40 331 -33 388 10 682 70 999 203 58 24 109 44 113 44 5 0 9 -22 9 -49 l0
-49 -107 -45 c-136 -57 -310 -112 -433 -137 -181 -36 -291 -43 -603 -38 -317
6 -327 5 -327 -41 0 -37 24 -42 260 -52 362 -15 604 9 860 84 116 35 273 92
328 121 l30 16 7 -117 c8 -121 1 -270 -16 -338 -11 -48 -16 -93 -18 -163 0
-29 -5 -51 -10 -48 -5 3 -58 -5 -117 -19 -316 -70 -548 -94 -989 -102 -207 -3
-355 -10 -362 -16 -18 -13 -16 -52 2 -67 22 -18 689 -7 879 14 154 17 376 54
504 84 l84 20 -7 -37 c-4 -20 -8 -37 -10 -39 -1 -1 -33 -12 -71 -22 -279 -81
-837 -155 -1364 -183 -30 -2 157 -4 417 -5 458 -2 476 -1 615 22 122 21 290
58 377 82 22 6 23 5 19 -19 -4 -20 2 -34 25 -57 25 -26 37 -30 82 -30 58 0
100 28 109 72 12 59 37 266 46 385 15 192 5 1046 -14 1268 -9 99 -25 306 -36
460 -24 329 -42 514 -75 759 -14 99 -23 181 -22 182 1 1 63 38 137 82 74 44
156 96 181 114 26 18 87 61 135 95 143 100 340 263 460 379 95 92 118 122 152
190 23 45 50 109 61 142 19 55 19 64 6 109 -14 47 -57 99 -100 121 -11 5 -72
22 -135 36 -138 31 -446 49 -775 45 -397 -4 -411 -3 -433 45 -5 12 -18 58 -27
101 -10 44 -24 92 -31 106 -14 28 -49 156 -141 514 -64 247 -69 307 -38 420
24 87 24 221 0 349 -19 100 -18 98 -58 155 l-29 39 82 202 c96 238 165 396
290 660 170 359 440 903 457 923 43 46 147 252 212 416 35 89 42 118 47 205 4
62 2 116 -5 141 -24 89 -163 215 -237 215 -159 0 -415 -103 -839 -339 -132
-73 -364 -200 -515 -281 -152 -82 -359 -196 -460 -253 l-184 -105 -108 103
c-194 186 -356 294 -696 464 -128 64 -142 74 -137 94 3 12 20 110 40 217 79
445 109 594 126 616 5 6 16 64 25 130 37 283 37 321 -3 399 -77 147 -173 205
-335 203 l-76 0 -49 -52 c-53 -54 -79 -99 -308 -526 -141 -261 -259 -472 -392
-695 l-59 -100 -151 -1 c-216 -2 -282 -11 -414 -55 -158 -53 -257 -52 -325 3
-46 38 -182 166 -205 192 -14 17 -42 49 -63 71 -21 22 -52 66 -69 97 -18 32
-57 93 -88 135 -34 47 -91 152 -143 263 -120 257 -127 269 -270 505 -72 118
-159 247 -199 295 -40 46 -94 114 -121 150 -88 116 -158 190 -193 205 -41 17
-49 17 -83 4z m5360 -5134 c0 -2 -18 -14 -40 -25 -33 -17 -43 -18 -66 -8 -27
13 -27 13 27 24 64 14 79 16 79 9z m-7766 -739 c15 -54 26 -100 24 -102 -2 -2
-16 8 -31 22 -25 23 -27 31 -27 106 0 45 2 79 4 77 2 -2 16 -48 30 -103z
m8796 -536 l545 -5 50 -26 c73 -39 89 -60 80 -106 -11 -58 -29 -86 -97 -147
-66 -60 -78 -60 -78 0 0 30 -20 51 -34 37 -12 -12 -6 -82 9 -97 13 -13 12 -17
-14 -35 -16 -12 -33 -21 -38 -21 -4 0 -25 27 -47 60 -37 58 -58 70 -64 38 -2
-8 13 -38 33 -66 19 -28 35 -55 35 -59 0 -5 -16 -20 -34 -35 l-35 -28 -40 57
c-23 31 -41 60 -41 65 0 4 -7 8 -15 8 -32 0 -26 -31 20 -97 l47 -67 -37 -34
-37 -34 -20 28 c-10 16 -28 47 -40 69 -22 42 -37 57 -50 49 -16 -10 -7 -39 33
-107 45 -76 46 -68 -19 -114 -22 -15 -24 -15 -58 18 -19 19 -49 63 -67 99 -17
36 -37 70 -43 77 -6 6 -19 37 -29 70 -20 67 -28 78 -49 70 -14 -5 -14 -12 0
-59 19 -67 81 -199 129 -273 30 -48 34 -60 23 -71 -14 -14 -160 -96 -163 -92
-19 22 -53 114 -75 201 -28 112 -42 139 -61 120 -17 -17 37 -225 82 -315 l19
-37 -30 -16 c-17 -9 -35 -13 -40 -10 -29 18 -92 241 -106 380 -5 44 -12 69
-21 72 -29 11 -33 -13 -17 -117 19 -131 47 -236 80 -302 24 -47 26 -78 6 -78
-20 0 -110 264 -132 385 -18 99 -25 120 -41 120 -35 0 7 -218 75 -395 53 -135
52 -130 27 -130 -62 0 -80 42 -111 268 -12 84 -36 208 -55 275 -64 234 -97
377 -91 392 8 21 46 36 71 28 11 -4 265 -10 565 -13z"/>
<path d="M10704 4086 c-8 -21 23 -86 40 -86 20 0 20 32 1 70 -17 32 -32 38
-41 16z"/>
<path d="M10004 3776 c-13 -34 102 -276 131 -276 26 0 25 17 -3 66 -15 27 -43
87 -63 133 -35 85 -54 106 -65 77z"/>
<path d="M3953 10324 c-7 -18 14 -35 37 -31 8 1 16 12 18 25 3 18 -1 22 -23
22 -14 0 -28 -7 -32 -16z"/>
<path d="M4003 10210 c-33 -20 -37 -50 -6 -50 29 0 75 31 69 46 -3 9 -6 18 -6
20 0 10 -28 2 -57 -16z"/>
<path d="M4183 9851 c-24 -21 -43 -46 -43 -55 0 -28 35 -17 80 24 36 33 41 42
30 55 -17 20 -19 20 -67 -24z"/>
<path d="M4238 9726 c-34 -14 -48 -25 -48 -39 0 -17 5 -19 36 -14 43 7 84 32
84 51 0 23 -22 24 -72 2z"/>
<path d="M4245 9612 c-53 -29 -66 -48 -40 -58 24 -10 115 36 115 57 0 28 -24
28 -75 1z"/>
<path d="M6912 9490 c2 -17 14 -27 43 -37 44 -15 65 -11 65 12 0 16 -32 32
-83 42 -26 5 -28 3 -25 -17z"/>
<path d="M4410 9434 c-36 -36 -102 -90 -148 -121 -78 -52 -98 -79 -66 -90 37
-12 308 212 302 250 -5 36 -22 28 -88 -39z"/>
<path d="M4680 9078 c-13 -17 -53 -49 -87 -71 -62 -38 -77 -62 -49 -73 18 -7
138 68 171 107 14 17 25 39 25 50 0 29 -32 22 -60 -13z"/>
<path d="M4870 8724 c-25 -25 -75 -64 -112 -86 -74 -44 -93 -62 -83 -78 11
-18 29 -11 111 39 83 51 168 133 161 154 -8 25 -34 16 -77 -29z"/>
<path d="M4966 8639 c-34 -58 -134 -155 -200 -193 -65 -38 -81 -61 -51 -72 20
-8 112 48 180 109 57 50 139 163 129 178 -11 19 -40 8 -58 -22z"/>
<path d="M6663 8225 c-9 -25 17 -41 94 -55 53 -10 67 -10 73 0 15 24 0 35 -64
48 -35 6 -71 14 -80 18 -10 4 -18 0 -23 -11z"/>
<path d="M6564 8159 c-10 -17 15 -34 103 -67 109 -41 148 -48 156 -29 8 22 -5
29 -124 70 -115 40 -125 42 -135 26z"/>
<path d="M7600 7954 c-47 -24 -116 -54 -153 -65 -51 -16 -71 -27 -80 -46 -9
-20 -7 -27 10 -45 l21 -21 73 23 c128 39 269 117 269 149 0 19 -30 51 -46 50
-5 0 -47 -20 -94 -45z"/>
<path d="M5240 7938 c-157 -128 -275 -197 -421 -244 -99 -31 -111 -39 -107
-72 5 -45 28 -48 130 -18 157 47 279 115 428 240 56 47 70 64 70 87 0 18 -7
32 -19 39 -27 14 -23 15 -81 -32z"/>
<path d="M6457 7923 c-4 -3 -7 -14 -7 -24 0 -13 25 -24 113 -48 204 -56 232
-59 225 -24 -2 11 -44 27 -143 53 -77 20 -149 40 -161 43 -11 4 -23 4 -27 0z"/>
<path d="M7136 7464 c-20 -19 -20 -43 -1 -68 29 -38 15 -118 -28 -164 -23 -25
-91 -64 -98 -57 -3 2 -51 9 -108 14 -57 6 -138 20 -180 31 -42 10 -204 51
-361 90 -157 39 -309 82 -338 95 -82 39 -128 28 -120 -27 5 -35 124 -77 458
-163 157 -41 299 -81 316 -90 34 -16 351 -85 395 -85 35 0 119 57 141 96 10
18 26 72 35 121 l16 90 -27 54 c-39 77 -68 96 -100 63z"/>
<path d="M8306 5437 c-11 -8 -17 -22 -14 -38 2 -20 15 -28 84 -51 48 -16 108
-28 148 -30 60 -3 70 -1 83 19 13 19 13 23 -6 42 -15 15 -34 21 -64 21 -36 0
-146 25 -197 45 -9 3 -24 -1 -34 -8z"/>
<path d="M5627 5286 c-198 -26 -268 -61 -422 -213 -93 -91 -258 -282 -307
-356 -16 -23 -58 -91 -93 -152 -36 -60 -90 -141 -120 -180 -168 -213 -248
-328 -310 -440 -82 -150 -155 -264 -228 -358 -84 -108 -96 -134 -78 -182 8
-23 8 -40 1 -60 -13 -34 2 -95 30 -120 11 -10 20 -24 20 -32 0 -26 49 -111
113 -194 35 -46 112 -167 172 -269 141 -241 189 -312 303 -448 165 -196 285
-290 461 -360 139 -56 262 -83 371 -83 224 0 617 114 927 270 128 64 412 247
598 386 113 85 303 190 645 357 196 97 352 195 382 242 13 21 17 42 14 65 -5
35 -50 91 -73 91 -8 0 -13 13 -13 34 0 45 -40 93 -85 102 -23 4 -54 -1 -96
-16 -96 -33 -117 -21 -282 153 -74 78 -157 169 -185 203 -27 33 -92 99 -143
145 -52 47 -177 169 -279 271 -373 374 -393 389 -602 458 -67 22 -95 36 -92
45 3 8 -3 22 -14 33 -17 17 -34 18 -233 17 -375 -4 -540 -30 -707 -114 -125
-62 -198 -118 -381 -296 -85 -82 -135 -125 -109 -95 52 63 125 171 217 323
122 201 388 489 486 526 121 45 397 51 561 12 139 -34 352 -109 436 -153 186
-99 383 -272 668 -588 92 -102 225 -246 295 -320 70 -74 172 -191 225 -260
124 -159 274 -327 311 -345 73 -38 158 7 159 84 0 28 -13 47 -86 124 -48 50
-137 154 -199 232 -61 77 -201 233 -309 345 -142 148 -206 221 -227 262 -21
41 -77 105 -211 241 -240 241 -432 385 -623 466 -97 41 -343 116 -445 136
-117 22 -312 27 -443 11z m362 -707 c29 -13 55 -18 73 -14 58 13 134 -13 203
-69 35 -29 79 -59 96 -66 30 -13 33 -12 55 14 l24 27 51 -27 c34 -19 144 -120
325 -299 150 -148 322 -317 382 -375 109 -106 239 -250 226 -250 -11 0 -133
69 -194 110 -30 21 -102 77 -160 126 -115 96 -200 154 -300 204 -36 18 -134
77 -217 132 -302 196 -475 251 -834 265 -225 8 -305 -11 -514 -125 -170 -93
-271 -180 -442 -382 -156 -186 -396 -400 -420 -376 -6 6 64 92 172 212 44 49
116 136 160 194 88 118 335 375 467 485 100 84 227 157 325 186 78 23 268 46
393 48 65 0 95 -4 129 -20z m-94 -515 c39 -8 79 -14 91 -14 44 0 250 -115 371
-207 149 -115 208 -239 208 -443 0 -109 -2 -118 -30 -168 -38 -70 -122 -146
-188 -170 -29 -11 -88 -38 -132 -60 -89 -45 -294 -118 -425 -151 -62 -15 -122
-22 -225 -24 -135 -2 -143 -1 -208 27 -55 23 -85 45 -151 112 -101 101 -182
215 -195 275 -27 117 -3 275 57 379 33 57 305 331 352 355 19 10 49 29 65 43
59 49 98 60 224 60 64 1 148 -6 186 -14z m-1411 -962 c37 -24 109 -64 160 -87
50 -24 118 -64 151 -90 83 -65 166 -109 291 -156 60 -22 158 -63 218 -91 105
-50 125 -55 206 -48 14 1 64 1 111 0 150 -2 347 45 527 126 31 15 109 48 172
74 63 26 198 84 300 128 158 69 209 86 350 117 137 31 185 37 282 37 113 0
212 -14 224 -33 3 -5 -30 -26 -73 -45 -43 -20 -127 -60 -188 -90 -160 -78
-232 -100 -505 -150 -269 -49 -443 -101 -664 -198 -148 -65 -159 -69 -321
-103 -102 -21 -158 -27 -260 -27 l-130 -1 -120 48 c-154 62 -189 83 -283 170
-42 40 -135 119 -206 176 -128 103 -130 104 -156 89 l-27 -15 -61 91 c-34 50
-70 102 -80 116 -19 27 -23 29 82 -38z m378 -479 c46 -42 106 -91 133 -108 61
-39 261 -120 335 -136 153 -33 555 33 723 118 64 32 247 103 354 137 45 14
192 46 325 70 134 25 270 54 302 66 33 11 61 20 64 20 2 0 -31 -26 -74 -57
-223 -161 -284 -203 -334 -234 -30 -18 -84 -54 -120 -80 -133 -95 -449 -236
-683 -303 -45 -13 -141 -34 -214 -46 -130 -23 -134 -23 -219 -6 -105 20 -241
70 -321 117 -69 41 -211 179 -310 304 -62 78 -223 329 -223 349 0 10 171 -127
262 -211z"/>
<path d="M5796 3827 c-22 -12 -74 -61 -115 -108 -182 -205 -211 -390 -82 -516
42 -41 81 -62 205 -111 79 -31 103 -35 181 -36 78 -1 98 3 147 26 69 32 142
103 183 178 42 77 40 154 -8 310 -43 138 -52 147 -212 226 -104 51 -114 54
-185 54 -59 0 -83 -5 -114 -23z"/>
<path d="M4560 4823 c-17 -14 -92 -101 -165 -192 -73 -91 -210 -253 -305 -360
-95 -107 -216 -246 -269 -309 -53 -63 -126 -151 -163 -195 -76 -91 -100 -143
-122 -274 -35 -200 -28 -302 28 -418 13 -27 39 -86 57 -130 52 -126 124 -227
293 -410 175 -189 333 -392 421 -538 60 -102 84 -124 60 -58 -20 58 -41 96
-112 204 -58 88 -179 295 -228 390 -11 21 -46 71 -79 110 -76 93 -186 315
-222 452 -38 138 -38 246 -1 332 15 34 27 67 27 74 0 16 108 255 140 309 15
25 58 84 96 131 38 48 98 135 134 195 36 59 101 156 145 215 44 59 109 154
145 210 36 56 94 141 129 187 48 65 60 87 50 93 -20 13 -24 12 -59 -18z"/>
<path d="M2005 4780 c-13 -20 22 -437 37 -446 22 -14 27 15 18 96 -6 47 -14
145 -18 219 -7 127 -17 163 -37 131z"/>
<path d="M2483 4584 c-7 -18 15 -643 23 -656 3 -4 12 -8 21 -8 13 0 15 10 9
68 -3 37 -9 190 -12 340 -6 221 -10 272 -21 272 -7 0 -16 -7 -20 -16z"/>
<path d="M8349 3450 l-37 -5 39 -65 c77 -127 81 -188 17 -284 -39 -59 -94
-104 -246 -197 -64 -40 -128 -83 -142 -95 -14 -12 -56 -43 -95 -69 -38 -27
-108 -78 -155 -115 -47 -36 -127 -94 -178 -129 -56 -37 -129 -100 -185 -158
-105 -109 -336 -306 -454 -386 -103 -71 -180 -109 -284 -142 -105 -33 -141
-47 -136 -52 6 -5 227 60 321 95 55 20 110 52 180 104 136 101 289 199 389
250 137 70 227 126 285 179 79 72 184 150 357 266 112 75 172 123 235 189 207
217 244 274 245 379 0 55 -4 67 -47 135 -66 106 -67 107 -109 100z"/>
<path d="M9390 2219 c-191 -67 -409 -109 -670 -129 -80 -6 -155 -13 -167 -16
-31 -6 -47 -38 -32 -65 11 -21 15 -22 138 -16 276 15 502 55 743 133 121 40
139 48 144 70 8 31 -11 54 -45 53 -14 0 -64 -14 -111 -30z"/>
<path d="M9699 786 c-10 -10 -327 -68 -464 -86 -159 -20 -487 -40 -666 -40
-104 0 -109 -1 -124 -24 -13 -19 -14 -29 -5 -45 10 -20 19 -21 173 -21 373 0
722 38 1070 116 79 18 99 40 72 80 -13 21 -44 32 -56 20z"/>
<path d="M9490 509 c-254 -58 -529 -80 -770 -60 -74 6 -172 14 -217 17 -82 7
-82 7 -94 -20 -11 -23 -10 -29 7 -46 47 -47 600 -63 859 -26 145 21 346 66
373 82 26 17 29 46 6 68 -19 19 -11 20 -164 -15z"/>
<path d="M8118 3 c7 -3 16 -2 19 1 4 3 -2 6 -13 5 -11 0 -14 -3 -6 -6z"/>
</g>
</svg>
