<?xml version="1.0" standalone="no"?>
<!DOCTYPE svg PUBLIC "-//W3C//DTD SVG 20010904//EN"
 "http://www.w3.org/TR/2001/REC-SVG-20010904/DTD/svg10.dtd">
<svg version="1.0" xmlns="http://www.w3.org/2000/svg"
 width="628.000000pt" height="671.000000pt" viewBox="0 0 628.000000 671.000000"
 preserveAspectRatio="xMidYMid meet">

<g transform="translate(0.000000,671.000000) scale(0.100000,-0.100000)"
fill="#ffffff" stroke="none">
<path d="M3145 6601 c-40 -18 -95 -60 -161 -122 -55 -52 -141 -129 -190 -171
-81 -70 -97 -90 -174 -220 -47 -79 -96 -165 -108 -193 -42 -98 -130 -331 -146
-385 -29 -104 -92 -495 -101 -630 -6 -83 -12 -127 -21 -162 -4 -13 -16 -18
-41 -18 -105 0 -411 -87 -580 -166 -152 -70 -364 -221 -463 -329 -14 -15 -111
-96 -216 -180 -105 -84 -213 -180 -241 -212 -101 -117 -213 -280 -437 -634
-149 -237 -186 -320 -186 -420 0 -70 17 -108 62 -142 56 -42 118 -57 241 -57
154 0 258 18 583 98 351 88 348 87 399 59 59 -33 73 -84 74 -267 1 -151 -13
-258 -75 -570 -34 -173 -40 -396 -25 -895 12 -406 19 -456 90 -600 75 -151
174 -248 288 -281 75 -22 128 -12 202 37 67 45 103 82 277 290 202 239 290
362 354 494 70 145 102 240 179 540 67 259 78 290 122 339 39 45 68 50 205 37
179 -16 332 -74 493 -185 537 -370 658 -461 878 -660 206 -185 279 -232 454
-291 113 -37 313 -63 393 -51 141 23 256 146 256 273 0 30 -7 87 -15 128 -20
94 -114 348 -161 434 -37 67 -292 452 -434 656 -224 321 -320 520 -320 662 1
92 22 135 106 211 125 116 287 209 529 308 77 31 184 76 238 100 53 24 104 44
112 44 11 0 15 -11 15 -38 0 -21 7 -89 15 -152 8 -63 16 -150 18 -192 4 -86
22 -117 82 -142 51 -22 164 -39 212 -32 77 10 153 84 124 120 -7 8 -13 50 -15
93 -1 43 -15 170 -31 282 l-29 203 29 21 c158 115 225 215 225 334 0 109 -107
248 -237 309 -39 18 -61 35 -60 44 3 21 -11 126 -33 260 -36 214 -51 332 -46
347 7 17 -23 89 -64 153 -16 25 -45 83 -64 129 -54 129 -91 156 -148 108 -27
-22 -43 -69 -88 -246 l-21 -84 22 -23 c18 -20 23 -43 35 -176 7 -84 18 -204
25 -266 6 -62 9 -115 7 -118 -3 -3 -95 13 -204 35 -195 39 -626 94 -834 106
-216 13 -328 26 -420 49 -52 14 -122 29 -154 35 -123 22 -240 101 -268 180
-10 28 -12 160 -10 579 3 517 2 549 -18 652 -43 227 -114 393 -208 488 -103
105 -187 126 -297 73z m134 -146 c40 -20 85 -80 125 -166 41 -87 53 -129 37
-129 -18 0 -13 -26 8 -41 11 -8 22 -24 26 -36 6 -21 4 -22 -24 -17 -24 5 -31
3 -31 -9 0 -19 36 -41 55 -34 8 4 15 -5 19 -25 11 -54 9 -59 -20 -48 -38 15
-54 12 -54 -8 0 -12 14 -22 43 -32 33 -12 43 -20 45 -41 3 -26 3 -26 -37 -16
-30 8 -44 8 -52 0 -15 -15 -3 -33 21 -33 37 0 70 -22 70 -47 0 -21 -4 -24 -27
-19 -16 3 -49 8 -75 12 -44 6 -48 4 -48 -14 0 -16 9 -21 48 -26 103 -14 102
-14 102 -57 0 -21 -1 -39 -2 -39 -2 0 -27 9 -56 20 -62 24 -112 26 -112 6 0
-15 21 -26 48 -26 9 0 41 -11 70 -25 45 -21 52 -28 52 -52 l0 -29 -71 4 c-65
4 -71 3 -67 -14 2 -14 13 -20 43 -22 82 -5 85 -7 85 -61 l0 -49 -50 19 c-66
25 -133 26 -128 2 2 -13 17 -20 54 -24 50 -6 107 -30 119 -49 3 -6 4 -18 0
-29 -5 -17 -9 -17 -58 -4 -62 16 -102 14 -102 -6 0 -10 21 -19 67 -27 37 -7
72 -16 78 -19 5 -3 10 -22 10 -42 0 -29 -3 -34 -17 -28 -34 13 -145 27 -169
21 -16 -4 -24 -13 -22 -22 2 -11 20 -16 69 -19 37 -2 82 -10 102 -18 33 -14
35 -18 39 -71 1 -31 3 -56 3 -56 -1 0 -27 9 -59 20 -74 26 -159 31 -163 10 -3
-12 12 -18 64 -26 37 -6 89 -20 116 -32 l47 -21 0 -52 c0 -45 -2 -50 -17 -44
-65 28 -203 78 -225 82 -20 4 -28 1 -28 -9 0 -17 22 -28 148 -74 124 -45 127
-47 141 -91 7 -21 15 -44 18 -51 3 -7 -18 1 -46 19 -72 44 -140 68 -256 90
-55 10 -101 19 -102 19 -2 0 -3 -9 -3 -19 0 -16 11 -22 58 -31 177 -34 223
-51 329 -126 34 -24 67 -44 74 -44 6 0 32 -18 56 -41 25 -23 75 -55 111 -71
61 -28 114 -41 373 -97 48 -11 169 -24 270 -31 207 -13 660 -62 789 -86 259
-47 668 -141 705 -162 19 -10 -66 -22 -156 -22 -49 0 -70 -13 -51 -32 8 -8 52
-8 149 -1 l138 10 28 -25 c38 -36 23 -47 -88 -61 -49 -7 -100 -15 -112 -18
-22 -5 -31 -27 -15 -36 6 -4 157 17 257 34 16 3 21 -2 23 -26 2 -16 -3 -38
-10 -47 -13 -18 -170 -62 -260 -73 -32 -4 -48 -11 -48 -21 0 -21 88 -18 178 5
l74 19 -19 -20 c-30 -34 -136 -106 -189 -128 -27 -12 -96 -33 -153 -46 -105
-25 -172 -49 -340 -123 -88 -39 -94 -41 -107 -24 -12 17 -15 16 -41 -15 -15
-18 -56 -46 -91 -62 l-63 -30 22 40 c13 22 19 43 15 47 -13 13 -41 -13 -69
-65 -20 -37 -40 -58 -69 -73 -22 -11 -42 -18 -45 -16 -2 3 10 33 27 66 30 61
32 81 6 81 -13 0 -86 -145 -86 -171 0 -9 -18 -27 -40 -42 -47 -30 -48 -25 -19
62 15 43 18 66 11 73 -6 6 -15 7 -21 4 -13 -8 -51 -129 -51 -163 0 -16 -13
-37 -37 -59 -20 -19 -39 -32 -41 -29 -3 2 1 48 8 101 8 69 9 99 1 107 -21 21
-30 -7 -43 -132 -11 -112 -15 -127 -42 -160 l-29 -36 7 55 c15 117 28 226 30
244 1 26 -20 32 -32 9 -11 -21 -42 -273 -42 -344 0 -26 -5 -60 -11 -76 -16
-42 -13 -200 6 -268 33 -125 160 -357 315 -580 188 -271 415 -615 450 -684 51
-103 127 -315 141 -395 16 -97 -4 -137 -86 -171 l-38 -17 16 26 c39 59 8 76
-36 21 -24 -30 -34 -35 -68 -35 l-41 0 36 42 c37 43 47 78 22 78 -7 0 -25 -18
-40 -40 -38 -57 -67 -73 -116 -65 -22 4 -40 10 -40 13 0 4 47 38 105 76 97 63
119 86 97 100 -5 3 -32 -10 -60 -29 -28 -19 -53 -35 -56 -35 -11 0 -106 -64
-106 -71 0 -15 -41 -20 -75 -9 -19 6 -35 15 -35 18 0 4 33 24 73 45 99 50 197
124 197 148 0 23 -23 25 -41 2 -20 -23 -144 -103 -207 -132 -28 -14 -52 -30
-52 -38 0 -17 -4 -17 -41 6 l-32 19 83 42 c115 58 160 89 160 111 0 25 -15 24
-53 -5 -33 -25 -209 -116 -224 -116 -4 0 -21 11 -38 24 l-29 23 59 17 c74 22
197 81 221 107 13 14 15 22 6 31 -8 8 -23 3 -59 -20 -63 -40 -134 -70 -206
-87 -55 -13 -59 -12 -84 9 l-26 22 64 23 c89 32 225 99 260 128 29 24 40 63
18 63 -6 0 -27 -14 -46 -30 -19 -17 -38 -28 -43 -25 -5 3 -33 -10 -62 -29 -90
-60 -225 -107 -234 -81 -2 6 25 25 61 44 133 68 244 161 193 161 -6 0 -48 -24
-92 -54 -45 -30 -109 -68 -144 -85 l-63 -32 -34 30 -34 30 57 16 c82 24 232
96 232 111 0 26 -21 24 -87 -10 -38 -18 -108 -46 -156 -61 -70 -22 -90 -25
-102 -15 -23 19 -19 23 33 44 132 54 212 95 212 112 0 23 -21 17 -173 -51
l-128 -57 -49 38 c-28 21 -50 39 -50 40 0 2 29 17 64 34 75 37 115 75 99 91
-8 8 -24 2 -59 -21 -26 -18 -69 -42 -96 -52 -49 -18 -50 -18 -84 3 -19 11 -34
24 -34 29 0 5 17 14 38 20 70 23 172 73 172 86 0 24 -19 25 -67 1 -26 -14 -81
-36 -121 -51 l-74 -26 -29 21 c-17 12 -29 22 -27 24 2 2 40 17 85 35 86 32
102 45 85 62 -7 7 -39 -2 -100 -26 -102 -41 -121 -43 -152 -18 l-23 19 49 13
c59 16 72 26 57 41 -9 9 -26 8 -71 -5 -71 -20 -83 -20 -107 -2 -17 12 -16 14
21 26 48 15 61 27 48 40 -7 7 -30 5 -73 -6 l-63 -16 -100 67 c-214 143 -414
204 -668 205 -90 0 -155 -27 -213 -87 l-38 -40 -52 9 c-40 7 -403 143 -583
217 -30 13 -52 -2 -35 -23 8 -9 18 -16 23 -16 5 0 124 -45 264 -101 141 -55
279 -105 309 -112 50 -10 52 -12 43 -33 -9 -19 -16 -22 -42 -17 -61 11 -149
45 -298 113 -83 39 -157 70 -165 70 -8 0 -13 -7 -11 -17 4 -22 316 -165 413
-190 39 -10 71 -18 73 -19 2 -1 -5 -31 -16 -65 l-19 -64 -54 3 c-101 6 -286
82 -468 191 -55 33 -88 48 -94 42 -15 -15 8 -37 82 -80 183 -107 381 -188 474
-193 52 -3 52 -3 33 -73 l-13 -50 -49 1 c-27 1 -78 12 -114 24 -79 26 -289
126 -369 174 -64 40 -81 44 -81 21 0 -47 415 -242 555 -262 34 -4 45 -9 41
-20 -4 -8 -6 -21 -6 -29 0 -30 -140 14 -343 108 -82 38 -152 66 -158 63 -25
-16 4 -37 154 -105 172 -78 261 -110 307 -110 27 0 28 -1 20 -31 -5 -18 -12
-34 -14 -37 -3 -2 -36 3 -74 11 -88 20 -237 86 -374 165 -60 34 -112 62 -118
62 -5 0 -10 -8 -10 -17 0 -35 340 -208 475 -243 43 -11 81 -22 84 -25 3 -3 -1
-25 -10 -48 -14 -40 -16 -42 -54 -41 -55 1 -141 38 -300 129 -82 46 -142 74
-152 71 -26 -10 1 -31 141 -110 142 -80 230 -120 289 -131 40 -8 45 -20 23
-50 -14 -19 -16 -19 -118 12 -56 17 -148 50 -203 73 -114 47 -130 51 -130 30
0 -21 86 -60 265 -120 85 -29 156 -54 158 -55 2 -2 -2 -13 -8 -25 -9 -16 -15
-19 -23 -11 -6 6 -30 11 -52 11 -86 0 -234 64 -442 191 -75 47 -120 68 -131
64 -15 -6 -13 -10 10 -30 41 -35 238 -152 331 -195 106 -50 188 -73 242 -68
l43 3 -14 -27 c-8 -15 -18 -29 -22 -32 -18 -11 -105 19 -249 85 -84 38 -157
69 -163 69 -5 0 -10 -7 -10 -16 0 -17 232 -131 327 -160 72 -22 70 -20 49 -43
-16 -18 -21 -18 -55 -7 -63 23 -232 112 -341 180 -58 36 -111 66 -118 66 -63
0 109 -120 331 -229 l138 -68 -41 -52 -41 -51 -42 21 c-23 12 -78 47 -122 78
-160 112 -195 130 -195 98 0 -12 250 -187 308 -216 l22 -12 -25 -34 c-24 -30
-29 -33 -58 -24 -54 15 -148 67 -236 130 -76 54 -111 67 -111 40 0 -18 151
-119 252 -170 82 -41 96 -51 83 -61 -21 -17 -58 -6 -137 41 -69 40 -98 48 -98
27 0 -14 56 -51 139 -93 48 -24 52 -28 39 -42 -14 -13 -21 -12 -64 10 -27 14
-74 43 -104 66 -52 39 -80 42 -67 8 4 -12 91 -73 173 -124 18 -11 17 -13 -12
-43 -30 -31 -32 -31 -60 -17 -16 9 -71 47 -123 86 -77 58 -97 69 -109 59 -17
-15 5 -36 135 -126 45 -31 82 -60 82 -63 2 -13 -46 -25 -72 -18 -74 20 -168
140 -215 273 -23 64 -26 95 -35 321 -5 138 -10 387 -10 555 l-1 305 37 180
c57 281 66 356 67 545 2 182 -7 235 -50 320 -30 59 -118 122 -190 135 -32 6
-43 20 -122 138 -47 73 -94 147 -102 165 -18 34 -33 41 -42 18 -7 -19 15 -62
103 -193 41 -61 72 -117 68 -122 -3 -6 -21 -11 -40 -11 -29 0 -39 7 -77 57
-24 32 -63 88 -87 126 -44 68 -57 78 -67 53 -6 -15 66 -133 123 -204 38 -46
38 -48 8 -53 -14 -3 -40 18 -90 71 -65 70 -100 92 -100 63 0 -7 28 -44 63 -82
l63 -70 -33 -9 c-18 -5 -38 -7 -44 -5 -6 2 -43 46 -83 98 -67 88 -101 115
-101 81 0 -7 31 -55 69 -105 l70 -91 -40 -10 c-45 -12 -47 -11 -91 60 -28 47
-89 110 -105 110 -18 0 -17 -37 1 -43 20 -8 107 -140 98 -148 -4 -4 -21 -10
-38 -13 -27 -6 -34 -2 -70 43 -36 47 -63 60 -71 35 -2 -5 13 -29 32 -51 37
-44 37 -49 -8 -54 -22 -3 -34 4 -62 36 -27 32 -36 38 -46 28 -10 -10 -9 -19 9
-43 28 -38 28 -40 -8 -40 -21 0 -38 9 -54 27 -16 18 -28 24 -41 20 -16 -7 -16
-9 -1 -32 l16 -25 -72 0 c-40 0 -90 5 -111 11 -31 8 -37 14 -37 37 0 57 110
249 348 612 180 274 255 358 466 523 72 56 167 136 211 178 218 206 349 286
619 380 117 40 293 79 355 79 21 0 46 7 57 15 10 8 26 15 35 15 43 0 60 32 80
145 10 61 19 134 19 163 0 117 81 564 121 667 17 44 48 125 68 181 47 123 55
138 147 289 60 98 87 131 145 180 40 33 117 102 173 154 81 76 137 117 164
121 2 0 16 -7 31 -15z m2375 -1319 c10 4 22 -8 36 -35 11 -22 34 -62 50 -88
40 -63 39 -81 -3 -49 -35 27 -62 33 -72 16 -3 -5 -19 -10 -35 -10 -15 0 -30
-4 -32 -9 -1 -5 -13 -1 -26 9 -21 18 -22 22 -12 62 6 24 16 60 21 80 9 34 12
37 34 28 14 -5 31 -7 39 -4z m53 -247 c6 -6 9 -27 6 -48 -3 -20 11 -132 31
-248 43 -254 43 -255 14 -244 -21 7 -24 20 -40 142 -9 74 -27 189 -38 257 -17
97 -19 126 -10 137 15 18 22 19 37 4z m-68 -131 c27 -148 56 -376 49 -384 -4
-3 -15 -3 -26 0 -21 7 -19 -7 -46 281 -18 185 -19 215 -7 215 5 0 18 -51 30
-112z m151 40 c0 -17 41 -289 66 -436 4 -28 2 -33 -12 -30 -14 2 -24 42 -55
228 -21 124 -38 238 -39 253 0 25 2 27 20 17 11 -6 20 -20 20 -32z m121 -1286
c3 -26 14 -95 22 -154 29 -193 39 -325 27 -347 -14 -28 -39 -27 -44 2 -40 218
-56 312 -61 357 -4 30 -13 79 -21 109 -8 29 -14 54 -12 55 24 13 74 33 77 30
3 -3 8 -26 12 -52z m-113 -44 c7 -29 17 -89 22 -133 6 -44 19 -123 30 -175 31
-157 32 -170 9 -171 -10 -1 -24 -2 -31 -3 -14 -1 -32 95 -68 358 -19 132 -20
160 -9 167 27 17 36 8 47 -43z m-88 -55 c6 -49 23 -157 36 -242 14 -84 23
-155 21 -157 -2 -3 -16 0 -31 5 -24 10 -26 15 -26 63 0 57 -38 386 -45 399 -5
6 9 16 26 18 4 1 12 -38 19 -86z"/>
<path d="M2815 4240 c-113 -20 -194 -62 -267 -137 -57 -59 -193 -265 -268
-404 -76 -143 -138 -231 -220 -314 -86 -88 -96 -120 -53 -164 26 -26 30 -37
30 -83 0 -92 47 -170 285 -479 280 -364 403 -425 678 -338 88 28 156 63 296
155 107 69 146 104 400 358 195 196 295 304 331 358 53 80 93 171 93 213 0 22
4 25 35 25 69 0 135 45 135 92 0 26 -57 86 -104 110 -23 11 -72 40 -111 65
-183 116 -265 166 -328 201 -38 20 -117 68 -175 105 -163 105 -333 182 -485
221 -75 19 -209 27 -272 16z m242 -141 c56 -14 224 -79 293 -114 26 -13 93
-53 147 -88 54 -36 125 -78 158 -95 33 -16 102 -57 152 -91 51 -33 111 -70
134 -81 22 -12 39 -23 37 -26 -15 -15 -488 105 -637 161 -285 107 -407 135
-509 117 -111 -19 -183 -62 -312 -187 -63 -61 -131 -122 -150 -136 l-35 -24
18 29 c11 15 45 77 78 138 63 117 179 287 225 329 87 80 243 107 401 68z m37
-309 c55 -18 154 -52 220 -77 67 -25 195 -65 286 -88 91 -24 160 -44 155 -44
-12 -1 -216 35 -440 79 -216 41 -331 53 -450 45 -127 -8 -215 -28 -282 -64
-29 -16 -53 -28 -53 -26 0 11 103 112 146 141 120 83 233 92 418 34z m211
-260 c314 -60 421 -78 500 -85 l80 -8 -93 -43 c-130 -61 -238 -98 -378 -129
-102 -22 -173 -40 -246 -61 -15 -4 -15 0 3 46 30 79 26 183 -9 254 -16 31 -26
56 -23 56 3 0 78 -14 166 -30z m-317 -47 c30 -15 92 -84 92 -104 0 -10 -58
-29 -91 -29 -19 0 -34 8 -46 26 -34 49 -62 74 -85 74 -37 0 -54 15 -39 34 24
29 106 29 169 -1z m-512 -135 c0 -46 5 -104 13 -130 16 -56 69 -121 120 -147
l36 -19 -40 -9 c-22 -4 -96 -8 -165 -7 -107 1 -135 4 -194 26 -88 31 -99 54
-64 125 31 65 105 133 208 193 47 27 85 49 86 49 0 1 0 -36 0 -81z m1403 -140
c-7 -13 -130 -141 -273 -284 -240 -240 -272 -268 -394 -348 -148 -98 -211
-127 -325 -150 -170 -35 -235 12 -500 360 -23 30 -20 30 55 -2 108 -45 299
-84 418 -84 179 0 294 42 512 188 57 38 195 130 307 205 112 76 205 137 207
137 3 0 -1 -10 -7 -22z m-444 -128 c-277 -137 -374 -172 -540 -195 -133 -19
-420 -17 -465 3 -22 9 -17 11 35 11 128 2 339 50 639 147 93 30 229 69 304 85
74 17 160 39 191 49 31 10 61 18 66 18 6 0 -98 -53 -230 -118z m35 -55 c0 -7
-224 -152 -292 -189 -152 -82 -312 -98 -517 -54 l-106 23 152 7 c271 12 404
46 638 158 139 67 125 61 125 55z"/>
<path d="M2140 1835 c0 -29 261 -141 388 -166 54 -10 65 -10 73 2 12 20 2 25
-71 39 -72 13 -204 61 -298 109 -68 34 -92 39 -92 16z"/>
<path d="M4355 1480 c-33 -16 -72 -34 -87 -39 -16 -6 -28 -17 -28 -27 0 -13 6
-15 32 -10 42 8 183 78 183 91 0 20 -41 13 -100 -15z"/>
</g>
</svg>
